<svg id="图层_1" data-name="图层 1" xmlns="http://www.w3.org/2000/svg" xmlns:xlink="http://www.w3.org/1999/xlink" viewBox="0 0 1024 1024"><defs><style>.cls-1{fill:#027af7;}.cls-2{fill:#0f82f8;opacity:0.32;}.cls-3{isolation:isolate;}.cls-4{clip-path:url(#clip-path);}.cls-5{clip-path:url(#clip-path-2);}.cls-6{fill:#1384f8;}.cls-7{fill:url(#未命名的渐变_76);}.cls-8{fill:url(#未命名的渐变_436);}.cls-9{fill:url(#未命名的渐变_76-2);}.cls-10{fill:#fff;}.cls-11{clip-path:url(#clip-path-3);}.cls-12{clip-path:url(#clip-path-4);}.cls-13{fill:url(#未命名的渐变_76-3);}.cls-14{fill:url(#未命名的渐变_436-2);}.cls-15{fill:url(#未命名的渐变_76-4);}</style><clipPath id="clip-path"><path class="cls-1" d="M558.44,607.51,429.08,513.42c-3.83-2.79-6-8.39-5.74-16.15L552.7,591.36C552.39,599.12,554.61,604.72,558.44,607.51Z"/></clipPath><clipPath id="clip-path-2"><path class="cls-1" d="M583.15,242.48l129.36,94.08c-3.87-2.82-9.4-2.76-15.65.84L567.51,243.32C573.75,239.72,579.28,239.66,583.15,242.48Z"/></clipPath><linearGradient id="未命名的渐变_76" x1="458.7" y1="321.77" x2="696.87" y2="321.77" gradientUnits="userSpaceOnUse"><stop offset="0" stop-color="#4ca3f9"/><stop offset="1" stop-color="#0f82f8"/></linearGradient><linearGradient id="未命名的渐变_436" x1="525.92" y1="346.03" x2="497.3" y2="392.54" gradientUnits="userSpaceOnUse"><stop offset="0" stop-color="#3697f9"/><stop offset="1" stop-color="#0f82f8"/></linearGradient><linearGradient id="未命名的渐变_76-2" x1="553.68" y1="472.03" x2="717.29" y2="472.03" xlink:href="#未命名的渐变_76"/><clipPath id="clip-path-3"><path class="cls-1" d="M432.37,749.24,303,655.16c-3.83-2.79-6-8.39-5.74-16.15L426.63,733.1C426.32,740.86,428.54,746.46,432.37,749.24Z"/></clipPath><clipPath id="clip-path-4"><path class="cls-1" d="M457.08,238.73l129.36,94.08c-3.87-2.82-9.4-2.76-15.65.84L441.43,239.58C447.68,236,453.2,235.91,457.08,238.73Z"/></clipPath><linearGradient id="未命名的渐变_76-3" x1="332.63" y1="318.03" x2="570.8" y2="318.03" xlink:href="#未命名的渐变_76"/><linearGradient id="未命名的渐变_436-2" x1="399.85" y1="342.28" x2="371.23" y2="388.79" xlink:href="#未命名的渐变_436"/><linearGradient id="未命名的渐变_76-4" x1="427.6" y1="541.03" x2="591.21" y2="541.03" xlink:href="#未命名的渐变_76"/></defs><title>BD2</title><polygon class="cls-2" points="278.88 710.21 435.1 820.51 639.38 704.57 576.08 665.76 739.91 568.07 629.42 509.2 278.88 710.21"/><g class="cls-3"><path class="cls-1" d="M558.44,607.51,429.08,513.42c-3.83-2.79-6-8.39-5.74-16.15L552.7,591.36C552.39,599.12,554.61,604.72,558.44,607.51Z"/><g class="cls-4"><g class="cls-3"><path class="cls-1" d="M558.44,607.51,429.08,513.42c-3.83-2.79-6-8.39-5.74-16.15L552.7,591.36c-.31,7.76,1.91,13.36,5.74,16.15"/></g></g></g><path class="cls-1" d="M583.15,242.48l129.36,94.08c-3.87-2.82-9.4-2.76-15.65.84L567.51,243.32C573.75,239.72,579.28,239.66,583.15,242.48Z"/><g class="cls-5"><g class="cls-3"><path class="cls-1" d="M696.87,337.4,567.51,243.32a24.38,24.38,0,0,1,3.71-1.77l129.36,94.08a24.38,24.38,0,0,0-3.71,1.77"/><path class="cls-1" d="M700.58,335.64,571.22,241.56a18.89,18.89,0,0,1,2-.61L702.56,335a18.89,18.89,0,0,0-2,.61"/><path class="cls-1" d="M702.56,335,573.2,240.94q.79-.2,1.55-.31l129.36,94.08q-.76.11-1.55.31"/><path class="cls-1" d="M704.12,334.72,574.75,240.63q.68-.1,1.33-.13l129.36,94.08q-.65,0-1.33.13"/><path class="cls-1" d="M705.45,334.58,576.08,240.5q.61,0,1.2,0l129.36,94.08q-.59,0-1.2,0"/><path class="cls-1" d="M706.64,334.57,577.28,240.49q.57,0,1.12.1l129.36,94.08q-.55-.08-1.12-.1"/><path class="cls-1" d="M707.77,334.67,578.4,240.59q.54.07,1.06.2l129.36,94.08q-.52-.12-1.06-.2"/><path class="cls-1" d="M708.83,334.87,579.47,240.79a10.55,10.55,0,0,1,1,.3l129.36,94.08a10.55,10.55,0,0,0-1-.3"/><path class="cls-1" d="M709.85,335.17,580.49,241.08a10.26,10.26,0,0,1,1,.41l129.36,94.08a10.26,10.26,0,0,0-1-.41"/><path class="cls-1" d="M710.85,335.57,581.48,241.49a10.19,10.19,0,0,1,1,.52L711.82,336.1a10.19,10.19,0,0,0-1-.52"/><path class="cls-1" d="M711.82,336.1,582.45,242q.36.22.7.47l129.36,94.08q-.34-.25-.7-.47"/></g></g><polygon class="cls-6" points="552.7 591.36 423.34 497.27 435.06 347.44 564.43 441.53 552.7 591.36"/><polygon class="cls-7" points="588.06 400.22 458.7 306.14 567.51 243.32 696.87 337.4 588.06 400.22"/><path class="cls-8" d="M565.35,434.48c.08-.39.17-.78.26-1.18.2-.86.43-1.72.68-2.57.09-.32.18-.65.28-1,.15-.5.33-1,.5-1.49s.35-1,.54-1.55c.12-.31.25-.63.37-.94.25-.64.51-1.27.78-1.9l.38-.86q.47-1,1-2.07l.27-.55q.64-1.26,1.34-2.5l.3-.52q.67-1.15,1.38-2.27l.13-.21c.51-.79,1-1.57,1.59-2.33l.33-.45q.81-1.11,1.66-2.17l.3-.37q.77-.94,1.57-1.82l.34-.38q.92-1,1.86-1.9c.27-.26.55-.5.83-.76s.83-.76,1.26-1.12,1-.84,1.58-1.24c.26-.2.52-.41.78-.59.8-.57,1.6-1.09,2.42-1.56L458.7,306.14c-.82.47-1.62,1-2.42,1.56-.26.19-.52.4-.78.6-.53.4-1.06.8-1.58,1.23l-.2.16c-.36.3-.7.64-1.05,1s-.56.5-.84.76l-.14.13q-.78.76-1.54,1.57l-.18.2-.35.39c-.27.3-.55.6-.82.91s-.51.61-.76.91l-.3.36-.18.21q-.59.74-1.16,1.5l-.32.45-.33.46-.46.63q-.55.79-1.08,1.61l-.05.09L444,321c-.29.45-.58.91-.86,1.38-.18.29-.34.59-.52.89l-.3.53-.21.36q-.52.94-1,1.89l-.12.24-.27.56c-.21.42-.42.83-.62,1.26-.12.26-.23.53-.35.8l-.38.86c-.09.2-.18.4-.27.6-.18.43-.34.86-.51,1.29s-.25.63-.37.95l-.12.3c-.15.41-.28.83-.42,1.25s-.35,1-.5,1.49l-.09.26c-.07.24-.12.47-.19.71-.25.86-.48,1.71-.68,2.57,0,.18-.1.36-.14.54s-.07.42-.11.64c-.18.84-.33,1.68-.45,2.51-.05.36-.12.72-.16,1.07-.15,1.17-.26,2.32-.31,3.46l129.36,94.08c0-1.14.16-2.3.31-3.46,0-.36.11-.71.16-1.07Q565.09,435.74,565.35,434.48Z"/><path class="cls-9" d="M564.83,608.51a9.49,9.49,0,0,1-7.11-3c-2.84-3-4.27-8-4-14.16l11.72-149.79c.61-15.34,11-33.5,23.14-40.52l108.81-62.82a17.78,17.78,0,0,1,8.76-2.71,9.48,9.48,0,0,1,7.1,3c2.84,3,4.27,8,4,14.16L705.54,502.46c-.61,15.34-11,33.5-23.14,40.52L573.59,605.8A17.77,17.77,0,0,1,564.83,608.51Z"/><path class="cls-10" d="M706.14,336.56h0a8.52,8.52,0,0,1,6.38,2.64c2.64,2.75,4,7.5,3.75,13.39L704.54,502.39v.08c-.6,15-10.75,32.79-22.64,39.65L573.09,604.93a16.8,16.8,0,0,1-8.26,2.57,8.52,8.52,0,0,1-6.38-2.65c-2.64-2.75-4-7.5-3.74-13.39l11.72-149.79v-.08c.6-15,10.75-32.79,22.64-39.65l108.81-62.82a16.81,16.81,0,0,1,8.27-2.57m0-2a18.8,18.8,0,0,0-9.26,2.84L588.06,400.22c-12.41,7.16-23,25.7-23.64,41.3L552.7,591.36c-.45,11.42,4.55,18.15,12.13,18.15a18.8,18.8,0,0,0,9.26-2.84L682.9,543.85c12.42-7.17,23-25.68,23.64-41.3l11.73-149.83c.45-11.41-4.55-18.15-12.12-18.15Z"/><path class="cls-10" d="M669.63,393l-64.15,37.11c-3.44,1.81-6.51,6.72-6.84,10.94l-2.93,34c-.33,4.22,2.19,6.18,5.63,4.38l64.15-37.12c3.44-1.81,6.51-6.71,6.84-10.94l2.93-34C675.59,393.2,673.07,391.23,669.63,393Zm-9.55,40a10,10,0,0,1-4.57,7.3l-42.82,24.77c-2.29,1.21-4-.1-3.76-2.92l2-22.67a10,10,0,0,1,4.57-7.3l42.82-24.77c2.3-1.21,4,.1,3.76,2.92Z"/><polygon class="cls-10" points="689.15 461.58 688.8 473.35 581.81 530.16 582.03 518.47 689.15 461.58"/><polygon class="cls-10" points="689.15 492.59 688.8 504.36 581.81 561.17 582.03 549.47 689.15 492.59"/><g class="cls-3"><path class="cls-1" d="M432.37,749.24,303,655.16c-3.83-2.79-6-8.39-5.74-16.15L426.63,733.1C426.32,740.86,428.54,746.46,432.37,749.24Z"/><g class="cls-11"><g class="cls-3"><path class="cls-1" d="M432.37,749.24,303,655.16c-3.83-2.79-6-8.39-5.74-16.15L426.63,733.1c-.31,7.76,1.91,13.36,5.74,16.15"/></g></g></g><path class="cls-1" d="M457.08,238.73l129.36,94.08c-3.87-2.82-9.4-2.76-15.65.84L441.43,239.58C447.68,236,453.2,235.91,457.08,238.73Z"/><g class="cls-12"><g class="cls-3"><path class="cls-1" d="M570.8,333.66,441.43,239.58a24.38,24.38,0,0,1,3.71-1.77l129.36,94.08a24.38,24.38,0,0,0-3.71,1.77"/><path class="cls-1" d="M574.51,331.89,445.15,237.81a18.89,18.89,0,0,1,2-.61l129.36,94.08a18.89,18.89,0,0,0-2,.61"/><path class="cls-1" d="M576.49,331.28,447.13,237.2q.79-.2,1.55-.31L578,331q-.76.11-1.55.31"/><path class="cls-1" d="M578,331,448.68,236.89q.68-.1,1.33-.13l129.36,94.08q-.65,0-1.33.13"/><path class="cls-1" d="M579.38,330.84,450,236.75q.61,0,1.2,0l129.36,94.08q-.59,0-1.2,0"/><path class="cls-1" d="M580.57,330.83,451.21,236.74q.57,0,1.12.1l129.36,94.08q-.55-.08-1.12-.1"/><path class="cls-1" d="M581.69,330.93,452.33,236.84q.54.07,1.06.2l129.36,94.08q-.52-.12-1.06-.2"/><path class="cls-1" d="M582.76,331.13,453.39,237a10.55,10.55,0,0,1,1,.3l129.36,94.08a10.55,10.55,0,0,0-1-.3"/><path class="cls-1" d="M583.78,331.42,454.41,237.34a10.26,10.26,0,0,1,1,.41l129.36,94.08a10.26,10.26,0,0,0-1-.41"/><path class="cls-1" d="M584.77,331.83,455.41,237.74a10.19,10.19,0,0,1,1,.52l129.36,94.08a10.19,10.19,0,0,0-1-.52"/><path class="cls-1" d="M585.75,332.35,456.38,238.27q.36.22.7.47l129.36,94.08q-.34-.25-.7-.47"/></g></g><polygon class="cls-6" points="426.63 733.1 297.26 639.01 308.99 343.7 438.36 437.78 426.63 733.1"/><polygon class="cls-13" points="461.99 396.48 332.63 302.39 441.43 239.57 570.8 333.66 461.99 396.48"/><path class="cls-14" d="M439.28,430.74c.08-.39.17-.78.26-1.18.2-.86.43-1.72.68-2.57.09-.32.18-.65.28-1,.15-.5.33-1,.5-1.49s.35-1,.54-1.55c.12-.31.25-.63.37-.94.25-.64.51-1.27.78-1.9l.38-.86q.47-1,1-2.07l.27-.55q.64-1.26,1.34-2.5l.3-.52q.67-1.15,1.38-2.27l.13-.21c.51-.79,1-1.57,1.59-2.33l.33-.45q.81-1.11,1.66-2.17l.3-.37q.77-.94,1.57-1.82l.34-.38q.92-1,1.86-1.9c.27-.26.55-.5.83-.76s.83-.76,1.26-1.12,1-.84,1.58-1.24c.26-.2.52-.41.78-.59.8-.57,1.6-1.09,2.42-1.56L332.63,302.4c-.82.47-1.62,1-2.42,1.56-.26.19-.52.4-.78.6-.53.4-1.06.8-1.58,1.23l-.2.16c-.36.3-.7.64-1.05,1s-.56.5-.84.76l-.14.13q-.78.76-1.54,1.57l-.18.2-.35.39c-.27.3-.55.6-.82.91s-.51.61-.76.91l-.3.36-.18.21q-.59.74-1.16,1.5l-.32.45-.33.46-.46.63q-.55.79-1.08,1.61l-.05.09-.14.22c-.29.45-.58.91-.86,1.38-.18.29-.34.59-.52.89l-.3.53-.21.36q-.52.94-1,1.89l-.12.24-.27.56c-.21.42-.42.83-.62,1.26-.12.26-.23.53-.35.8l-.38.86c-.09.2-.18.4-.27.6-.18.43-.34.86-.51,1.29s-.25.63-.37.95l-.12.3c-.15.41-.28.83-.42,1.25s-.35,1-.5,1.49l-.09.26c-.07.24-.12.47-.19.71-.25.86-.48,1.71-.68,2.57,0,.18-.1.36-.14.54s-.07.42-.11.64c-.18.84-.33,1.68-.45,2.51-.05.36-.12.72-.16,1.07-.15,1.17-.26,2.32-.31,3.46l129.36,94.08c0-1.14.16-2.3.31-3.46,0-.36.11-.71.16-1.07Q439,432,439.28,430.74Z"/><path class="cls-15" d="M438.76,750.24a9.49,9.49,0,0,1-7.11-3c-2.84-3-4.27-8-4-14.16l11.73-295.31c.61-15.3,11-33.46,23.14-40.48L571.3,334.52a17.77,17.77,0,0,1,8.76-2.71,9.48,9.48,0,0,1,7.1,3c2.84,3,4.27,8,4,14.16L579.46,644.24c-.61,15.3-11,33.46-23.14,40.48L447.52,747.54A17.77,17.77,0,0,1,438.76,750.24Z"/><path class="cls-10" d="M580.06,332.82h0a8.52,8.52,0,0,1,6.38,2.64c2.65,2.76,4,7.52,3.74,13.43L578.46,644.2c-.6,15-10.75,32.79-22.64,39.65L447,746.67a16.8,16.8,0,0,1-8.26,2.57,8.52,8.52,0,0,1-6.38-2.65c-2.65-2.76-4-7.52-3.74-13.42l11.73-295.31c.6-15,10.75-32.79,22.64-39.65L571.8,335.39a16.81,16.81,0,0,1,8.27-2.57m0-2a18.8,18.8,0,0,0-9.26,2.84L462,396.48c-12.41,7.16-23,25.7-23.64,41.3L426.63,733.09c-.45,11.42,4.55,18.15,12.13,18.15A18.8,18.8,0,0,0,448,748.4l108.81-62.82c12.42-7.17,23-25.68,23.64-41.3L592.19,349c.45-11.41-4.55-18.15-12.12-18.15Z"/><polygon class="cls-10" points="581.56 494.42 581.05 512.01 437.23 589.48 437.62 571.96 581.56 494.42"/><polygon class="cls-10" points="563.08 567.55 562.73 579.32 455.74 636.13 455.96 624.43 563.08 567.55"/><polygon class="cls-10" points="563.08 603.32 562.73 615.09 455.74 671.9 455.96 660.21 563.08 603.32"/><polygon class="cls-10" points="563.08 634.33 562.73 646.1 455.74 702.91 455.96 691.21 563.08 634.33"/><path class="cls-10" d="M509.39,413c-24.15,14.1-43.73,45.11-43.73,69.26s19.58,32.29,43.73,18.19,43.73-45.11,43.73-69.26S533.54,398.89,509.39,413Zm0,52.6c-4.9,2.86-8.88,1.21-8.88-3.69s4-11.2,8.88-14.06,8.88-1.21,8.88,3.69S514.3,462.74,509.39,465.6Z"/></svg>