<?xml version="1.0" standalone="no"?><!DOCTYPE svg PUBLIC "-//W3C//DTD SVG 1.1//EN" "http://www.w3.org/Graphics/SVG/1.1/DTD/svg11.dtd"><svg t="1665459461849" class="icon" viewBox="0 0 1024 1024" version="1.1" xmlns="http://www.w3.org/2000/svg" p-id="78411" xmlns:xlink="http://www.w3.org/1999/xlink" width="200" height="200"><path d="M512 512m-460.8 0a460.8 460.8 0 1 0 921.6 0 460.8 460.8 0 1 0-921.6 0Z" fill="#FFF3E2" p-id="78412"></path><path d="M307.2 268.8h422.4c21.76 0 38.4 16.64 38.4 38.4v460.8c0 21.76-16.64 38.4-38.4 38.4H307.2c-21.76 0-38.4-16.64-38.4-38.4V307.2c0-21.76 16.64-38.4 38.4-38.4z" fill="#FBB03B" p-id="78413"></path><path d="M460.8 217.6c2.56-28.16 28.16-51.2 57.6-51.2s53.76 23.04 57.6 51.2h51.2c14.08 0 25.6 11.52 25.6 25.6v38.4c0 14.08-11.52 25.6-25.6 25.6H409.6c-14.08 0-25.6-11.52-25.6-25.6v-38.4c0-14.08 11.52-25.6 25.6-25.6h51.2z" fill="#FAE0B7" p-id="78414"></path><path d="M345.6 691.2h358.4v38.4H345.6zM633.6 473.6c17.92 0 32 14.08 32 32V678.4h-64V505.6c0-17.92 14.08-32 32-32zM531.2 537.6c17.92 0 32 14.08 32 32V678.4h-64v-108.8c0-17.92 14.08-32 32-32zM428.8 499.2c17.92 0 32 14.08 32 32V678.4h-64V531.2c0-17.92 14.08-32 32-32zM524.8 520.96L414.72 473.6c-10.24-3.84-14.08-15.36-10.24-25.6s15.36-14.08 25.6-10.24l88.32 38.4 97.28-81.92c7.68-6.4 20.48-6.4 26.88 2.56 6.4 7.68 6.4 20.48-2.56 26.88l-115.2 97.28z" fill="#FAC573" p-id="78415"></path><path d="M652.8 467.2c-10.24 0-19.2-8.96-19.2-19.2v-44.8H588.8c-10.24 0-19.2-8.96-19.2-19.2s8.96-19.2 19.2-19.2h64c10.24 0 19.2 8.96 19.2 19.2v64c0 10.24-8.96 19.2-19.2 19.2z" fill="#FAC573" p-id="78416"></path></svg>