<?xml version="1.0" standalone="no"?><!DOCTYPE svg PUBLIC "-//W3C//DTD SVG 1.1//EN" "http://www.w3.org/Graphics/SVG/1.1/DTD/svg11.dtd"><svg t="1665944791449" class="icon" viewBox="0 0 1040 1024" version="1.1" xmlns="http://www.w3.org/2000/svg" p-id="25248" xmlns:xlink="http://www.w3.org/1999/xlink" width="203.125" height="200"><path d="M745.74544 208.912a141.408 141.408 0 0 1 55.104-11.104c78.736 0 142.56 64.192 142.56 143.36a143.36 143.36 0 0 1-50.624 109.568 248.112 248.112 0 0 1 132.064 220.064c0 15.248-42 26.016-101.392 32.352-25.536-110.192-107.664-198.288-213.648-231.2a174.08 174.08 0 0 0 80.064-146.848 174.08 174.08 0 0 0-44.128-116.192z m-466.64 0A141.408 141.408 0 0 0 224.00144 197.808c-78.72 0-142.544 64.192-142.544 143.36a143.36 143.36 0 0 0 50.624 109.568A248.112 248.112 0 0 0 0.00144 670.8c0 15.248 42.016 26.016 101.408 32.352 25.52-110.192 107.648-198.288 213.632-231.2a174.08 174.08 0 0 1-80.048-146.848c0-44.672 16.672-85.408 44.112-116.192z" fill="#5D9CED" p-id="25249"></path><path d="M523.63344 128a197.808 197.808 0 0 1 105.888 364.896 361.92 361.92 0 0 1 254.832 346.112c0 76-721.44 76-721.44 0 0-162.896 107.28-300.672 254.832-346.064v-0.048A197.808 197.808 0 0 1 523.63344 128z m58.176 395.616h-116.352l37.344 69.824-37.344 208.704 59.968 24.016 56.384-24-38.208-208.72 38.208-69.824z" fill="#5D9CED" p-id="25250"></path></svg>