<?xml version="1.0" standalone="no"?><!DOCTYPE svg PUBLIC "-//W3C//DTD SVG 1.1//EN" "http://www.w3.org/Graphics/SVG/1.1/DTD/svg11.dtd"><svg t="1665945005639" class="icon" viewBox="0 0 1024 1024" version="1.1" xmlns="http://www.w3.org/2000/svg" p-id="11462" xmlns:xlink="http://www.w3.org/1999/xlink" width="200" height="200"><path d="M400.32 227.712a198.208 198.208 0 0 0-280.576 0 198.528 198.528 0 0 0 0 280.608l312.256 312.224 312.256-312.224a198.208 198.208 0 0 0 0-280.64 198.528 198.528 0 0 0-280.576 0.032l-31.68 31.68-31.68-31.68z" fill="#F83B57" p-id="11463"></path><path d="M638.4 446.08a150.56 150.56 0 0 0-212.736 0 150.496 150.496 0 0 0 0 212.704l233.088 233.056 233.024-233.056a150.56 150.56 0 0 0 0-212.704 150.496 150.496 0 0 0-212.672 0l-20.352 20.352-20.384-20.352z" fill="#FF9DAC" p-id="11464"></path></svg>