<?xml version="1.0" standalone="no"?><!DOCTYPE svg PUBLIC "-//W3C//DTD SVG 1.1//EN" "http://www.w3.org/Graphics/SVG/1.1/DTD/svg11.dtd"><svg t="1665471019769" class="icon" viewBox="0 0 1024 1024" version="1.1" xmlns="http://www.w3.org/2000/svg" p-id="21271" xmlns:xlink="http://www.w3.org/1999/xlink" width="200" height="200"><path d="M0 0m0 0l1024 0q0 0 0 0l0 1024q0 0 0 0l-1024 0q0 0 0 0l0-1024q0 0 0 0Z" fill="#E8EFF8" p-id="21272"></path><path d="M861.090909 651.636364c0-12.846545-6.842182-23.272727-15.266909-23.272728H387.630545c-8.424727 0-15.266909 10.426182-15.266909 23.272728v116.363636c0 12.846545 6.842182 23.272727 15.266909 23.272727h458.193455c8.424727 0 15.266909-10.426182 15.266909-23.272727v-116.363636z" fill="#247ADE" p-id="21273"></path><path d="M861.090909 442.181818c0-12.846545-6.842182-23.272727-15.266909-23.272727H387.630545c-8.424727 0-15.266909 10.426182-15.266909 23.272727v116.363637c0 12.846545 6.842182 23.272727 15.266909 23.272727h458.193455c8.424727 0 15.266909-10.426182 15.266909-23.272727v-116.363637z" fill="#69CB91" p-id="21274"></path><path d="M861.090909 232.727273c0-12.846545-6.842182-23.272727-15.266909-23.272728H387.630545c-8.424727 0-15.266909 10.426182-15.266909 23.272728v116.363636c0 12.846545 6.842182 23.272727 15.266909 23.272727h458.193455c8.424727 0 15.266909-10.426182 15.266909-23.272727v-116.363636z" fill="#A0BFF7" p-id="21275"></path><path d="M162.909091 290.909091a81.454545 81.454545 0 1 1 162.909091 0 81.454545 81.454545 0 0 1-162.909091 0z" fill="#69CB91" p-id="21276"></path><path d="M162.909091 500.363636a81.454545 81.454545 0 1 1 162.909091 0 81.454545 81.454545 0 0 1-162.909091 0z" fill="#247ADE" p-id="21277"></path><path d="M162.909091 709.818182a81.454545 81.454545 0 1 1 162.909091 0 81.454545 81.454545 0 0 1-162.909091 0z" fill="#A0BFF7" p-id="21278"></path></svg>