<?xml version="1.0" standalone="no"?><!DOCTYPE svg PUBLIC "-//W3C//DTD SVG 1.1//EN" "http://www.w3.org/Graphics/SVG/1.1/DTD/svg11.dtd"><svg t="1665470894998" class="icon" viewBox="0 0 1024 1024" version="1.1" xmlns="http://www.w3.org/2000/svg" p-id="17054" xmlns:xlink="http://www.w3.org/1999/xlink" width="200" height="200"><path d="M704 512c0 70.4-25.6 128-70.4 172.8-44.8 51.2-108.8 83.2-185.6 83.2-140.8 0-256-115.2-256-256s115.2-256 256-256 256 115.2 256 256z" fill="#2D8DFE" opacity=".1" p-id="17055"></path><path d="M908.8 985.6l-179.2-166.4c-76.8 70.4-179.2 108.8-281.6 108.8C217.6 928 32 742.4 32 512S217.6 96 448 96s416 185.6 416 416c0 96-32 185.6-89.6 262.4l179.2 166.4-44.8 44.8zM448 160C256 160 96 320 96 512S256 864 448 864c96 0 192-38.4 256-108.8 64-64 96-153.6 96-243.2 0-192-160-352-352-352z" fill="#2D8DFE" p-id="17056"></path><path d="M288 512h-64c0-121.6 102.4-224 224-224v64C358.4 352 288 422.4 288 512z" fill="#2D8DFE" p-id="17057"></path></svg>