<?xml version="1.0" standalone="no"?><!DOCTYPE svg PUBLIC "-//W3C//DTD SVG 1.1//EN" "http://www.w3.org/Graphics/SVG/1.1/DTD/svg11.dtd"><svg t="1665459391398" class="icon" viewBox="0 0 1024 1024" version="1.1" xmlns="http://www.w3.org/2000/svg" p-id="70726" xmlns:xlink="http://www.w3.org/1999/xlink" width="200" height="200"><path d="M168.32 353.706667v344.533333a64 64 0 0 0 30.293333 54.4l273.066667 168.533333a64 64 0 0 0 67.2 0l272.853333-168.533333a64 64 0 0 0 30.293334-54.4V353.706667A64 64 0 0 0 811.733333 298.666667L538.88 130.773333a64 64 0 0 0-67.2 0L198.613333 298.666667a64 64 0 0 0-30.293333 55.04z" fill="#839BFB" p-id="70727"></path><path d="M505.173333 526.08m-85.333333 0a85.333333 85.333333 0 1 0 170.666667 0 85.333333 85.333333 0 1 0-170.666667 0Z" fill="#FFFFFF" p-id="70728"></path></svg>