<svg xml:space="preserve" viewBox="0 0 850.39 368.5" height="368.5px" width="850.39px" y="0px" x="0px" xmlns:xlink="http://www.w3.org/1999/xlink" xmlns="http://www.w3.org/2000/svg" id="图层_1" version="1.1">
<g>
	<g>
		<path d="M205.05,329.7c0.267-0.5,0.667-0.817,1.2-0.95
			c0.533-0.167,1.05-0.117,1.55,0.15l4.55,2.55c0.467,0.267,0.783,0.667,0.95,1.2c0.134,0.533,0.067,1.05-0.2,1.55
			c-0.267,0.467-0.667,0.783-1.2,0.95c-0.533,0.133-1.033,0.066-1.5-0.2l-4.55-2.55c-0.5-0.268-0.817-0.667-0.95-1.2
			C204.733,330.667,204.783,330.167,205.05,329.7z M197.9,328.45c0.467-0.267,0.967-0.317,1.5-0.15c0.534,0.134,0.934,0.45,1.2,0.95
			c0.267,0.467,0.333,0.967,0.2,1.5c-0.167,0.533-0.483,0.934-0.95,1.2l-5.25,2.85c-0.5,0.267-1.017,0.333-1.55,0.2
			c-0.533-0.167-0.933-0.483-1.2-0.95c-0.267-0.5-0.317-1.017-0.15-1.55c0.133-0.533,0.45-0.934,0.95-1.2L197.9,328.45z
			 M197.25,316.15c0.533,0.033,0.983,0.267,1.35,0.699l3.25,3.801c0.333,0.433,0.483,0.933,0.45,1.5
			c-0.066,0.533-0.3,0.982-0.7,1.35c-0.434,0.333-0.917,0.483-1.45,0.45c-0.566-0.033-1.017-0.267-1.35-0.7l-3.25-3.8
			c-0.367-0.434-0.533-0.917-0.5-1.45c0.067-0.566,0.317-1.017,0.75-1.35C196.2,316.283,196.683,316.117,197.25,316.15z
			 M144.15,286.45l-3.35,3.35c-0.4,0.4-0.867,0.601-1.4,0.601c-0.566,0-1.05-0.184-1.45-0.551c-0.4-0.399-0.6-0.866-0.6-1.399
			c0-0.567,0.2-1.05,0.6-1.45l3.35-3.35c0.367-0.4,0.833-0.601,1.4-0.601c0.533,0,1,0.2,1.4,0.601c0.4,0.366,0.6,0.833,0.6,1.399
			C144.7,285.583,144.517,286.05,144.15,286.45z M151.15,283.75c0.567,0,1.05,0.2,1.45,0.6l3.3,3.301
			c0.367,0.366,0.55,0.833,0.55,1.399c0,0.567-0.184,1.05-0.55,1.45c-0.4,0.367-0.883,0.55-1.45,0.55c-0.567,0-1.034-0.183-1.4-0.55
			l-3.3-3.3c-0.4-0.4-0.6-0.884-0.6-1.45s0.2-1.033,0.6-1.4C150.117,283.95,150.583,283.75,151.15,283.75z M150.6,279.25
			c-0.567,0-1.034-0.184-1.4-0.55c-0.434-0.4-0.65-0.867-0.65-1.4s0.184-1,0.55-1.399l2.5-2.551c0.4-0.433,0.867-0.649,1.4-0.649
			c0.566,0,1.05,0.183,1.45,0.55c0.4,0.4,0.6,0.867,0.6,1.4s-0.183,1.017-0.55,1.449l-2.5,2.551
			C151.6,279.05,151.133,279.25,150.6,279.25z M140.1,277.55l-2.6-2.6c-0.4-0.4-0.6-0.884-0.6-1.45s0.2-1.033,0.6-1.4
			c0.367-0.399,0.833-0.6,1.4-0.6c0.567,0,1.05,0.2,1.45,0.6l2.6,2.601c0.366,0.366,0.55,0.833,0.55,1.399
			c0,0.567-0.184,1.051-0.55,1.45c-0.4,0.367-0.884,0.55-1.45,0.55C140.933,278.1,140.467,277.917,140.1,277.55z M291.4,316.05
			c-0.1,0.533-0.367,0.967-0.8,1.3l-7.9,6c-0.434,0.334-0.917,0.467-1.45,0.4c-0.567-0.1-1.017-0.367-1.35-0.8
			c-0.333-0.434-0.45-0.917-0.35-1.45c0.067-0.566,0.317-1.017,0.75-1.35l7.9-6c0.433-0.334,0.933-0.45,1.5-0.351
			c0.533,0.067,0.966,0.317,1.3,0.75C291.333,314.983,291.467,315.483,291.4,316.05z M279.05,304.8c0.233-0.5,0.617-0.85,1.15-1.05
			c0.533-0.167,1.05-0.133,1.55,0.1l6.8,3.301c0.467,0.232,0.8,0.616,1,1.149c0.167,0.533,0.133,1.05-0.1,1.55
			c-0.233,0.467-0.617,0.801-1.15,1c-0.533,0.167-1.033,0.134-1.5-0.1l-6.8-3.3c-0.5-0.233-0.85-0.617-1.05-1.15
			C278.783,305.767,278.817,305.267,279.05,304.8z M212.55,321c-0.033,0.566-0.267,1.033-0.7,1.4l-3.45,3
			c-0.433,0.333-0.917,0.482-1.45,0.449c-0.567-0.033-1.017-0.267-1.35-0.699c-0.367-0.434-0.533-0.917-0.5-1.45
			c0.033-0.567,0.267-1.017,0.7-1.351l3.45-3c0.434-0.366,0.917-0.533,1.45-0.5c0.566,0.033,1.033,0.268,1.4,0.7
			C212.434,319.983,212.583,320.467,212.55,321z M231.95,245.15c0.367,0.366,0.55,0.833,0.55,1.399c0,0.567-0.183,1.05-0.55,1.45
			c-0.4,0.367-0.883,0.55-1.45,0.55h-9v9c0,0.567-0.183,1.05-0.55,1.45c-0.4,0.367-0.883,0.55-1.45,0.55
			c-0.566,0-1.033-0.183-1.4-0.55c-0.4-0.4-0.6-0.883-0.6-1.45v-9h-9c-0.566,0-1.033-0.183-1.4-0.55c-0.4-0.4-0.6-0.883-0.6-1.45
			c0-0.566,0.2-1.033,0.6-1.399c0.367-0.4,0.833-0.601,1.4-0.601h9v-9c0-0.566,0.2-1.033,0.6-1.399c0.367-0.4,0.833-0.601,1.4-0.601
			c0.567,0,1.05,0.2,1.45,0.601c0.367,0.366,0.55,0.833,0.55,1.399v9h9C231.067,244.55,231.55,244.75,231.95,245.15z M259.05,251.2
			c2.667-2.601,5.8-3.9,9.4-3.9c3.667,0,6.8,1.3,9.4,3.9c2.566,2.566,3.85,5.683,3.85,9.35c0,3.7-1.284,6.851-3.85,9.45
			c-2.6,2.566-5.733,3.85-9.4,3.85c-3.6,0-6.733-1.283-9.4-3.85c-2.6-2.6-3.9-5.75-3.9-9.45
			C255.15,256.883,256.45,253.767,259.05,251.2z M261.85,254.05h0.05c-1.833,1.8-2.75,3.967-2.75,6.5
			c0,2.567,0.917,4.767,2.75,6.601h-0.05c1.867,1.8,4.066,2.699,6.6,2.699c2.533,0,4.716-0.899,6.55-2.699
			c1.8-1.834,2.7-4.033,2.7-6.601c0-2.533-0.9-4.7-2.7-6.5c-1.833-1.833-4.017-2.75-6.55-2.75
			C265.917,251.3,263.717,252.217,261.85,254.05z M294.35,317.65c-0.2-0.5-0.184-1,0.05-1.5c0.2-0.533,0.567-0.884,1.1-1.051
			c0.5-0.199,1.017-0.183,1.55,0.051c0.5,0.199,0.85,0.566,1.05,1.1l2.5,6.55c0.167,0.5,0.15,1.017-0.05,1.55
			c-0.233,0.5-0.617,0.851-1.15,1.051c-0.5,0.166-1,0.149-1.5-0.051c-0.533-0.232-0.883-0.616-1.05-1.149L294.35,317.65z
			 M305.5,305.85c0.5-0.232,1-0.25,1.5-0.05c0.533,0.167,0.917,0.517,1.15,1.05c0.2,0.5,0.217,1,0.05,1.5
			c-0.2,0.533-0.55,0.917-1.05,1.15l-6.35,2.95c-0.533,0.2-1.05,0.217-1.55,0.05c-0.533-0.2-0.9-0.55-1.1-1.05
			c-0.233-0.533-0.25-1.05-0.05-1.55c0.167-0.533,0.517-0.9,1.05-1.101L305.5,305.85z M293.75,297.35c0.567,0,1.05,0.2,1.45,0.601
			c0.367,0.366,0.55,0.833,0.55,1.399v4.95c0,0.567-0.183,1.05-0.55,1.45c-0.4,0.367-0.883,0.55-1.45,0.55s-1.033-0.183-1.4-0.55
			c-0.4-0.4-0.6-0.883-0.6-1.45v-4.95c0-0.566,0.2-1.033,0.6-1.399C292.717,297.55,293.183,297.35,293.75,297.35z M317.25,283.6
			c0.533-0.033,1.017,0.134,1.45,0.5c0.4,0.334,0.633,0.783,0.7,1.351c0.033,0.533-0.117,1.017-0.45,1.45
			c-0.367,0.399-0.817,0.633-1.35,0.699c-62,5.167-117.7,15.101-167.1,29.801c-0.533,0.133-1.05,0.066-1.55-0.2
			s-0.817-0.65-0.95-1.15c-0.167-0.533-0.117-1.05,0.15-1.55s0.667-0.816,1.2-0.95C198.983,298.75,254.95,288.767,317.25,283.6z
			 M124.6,325.75c-0.534,0.167-1.05,0.133-1.55-0.1c-0.5-0.233-0.833-0.601-1-1.101c-0.2-0.533-0.183-1.05,0.05-1.55
			s0.617-0.833,1.15-1c4.2-1.533,8.55-3.017,13.05-4.45c0.5-0.167,1-0.116,1.5,0.15c0.5,0.233,0.833,0.616,1,1.149
			c0.167,0.5,0.133,1-0.1,1.5c-0.267,0.5-0.667,0.834-1.2,1C133.066,322.783,128.767,324.25,124.6,325.75z M104.6,329.55
			c0.2-0.5,0.566-0.85,1.1-1.05c2.133-0.833,4.3-1.667,6.5-2.5c0.5-0.2,1.017-0.184,1.55,0.05c0.5,0.2,0.85,0.567,1.05,1.101
			c0.167,0.5,0.15,1.017-0.05,1.55c-0.233,0.5-0.617,0.85-1.15,1.05c-2.2,0.833-4.35,1.667-6.45,2.5
			c-0.533,0.167-1.05,0.15-1.55-0.05c-0.5-0.233-0.85-0.601-1.05-1.101C104.35,330.566,104.367,330.05,104.6,329.55z M263.9,180
			c0.367-0.4,0.833-0.6,1.4-0.6c0.567,0,1.05,0.199,1.45,0.6c0.367,0.367,0.55,0.833,0.55,1.4v6.8h6.8c0.566,0,1.05,0.2,1.45,0.6
			c0.367,0.367,0.55,0.834,0.55,1.4s-0.184,1.05-0.55,1.45c-0.4,0.366-0.883,0.55-1.45,0.55h-6.8v6.8c0,0.566-0.183,1.05-0.55,1.45
			c-0.4,0.366-0.883,0.55-1.45,0.55c-0.566,0-1.033-0.184-1.4-0.55c-0.4-0.4-0.6-0.884-0.6-1.45v-6.8h-6.8
			c-0.567,0-1.033-0.184-1.4-0.55c-0.4-0.4-0.6-0.884-0.6-1.45s0.2-1.033,0.6-1.4c0.367-0.399,0.833-0.6,1.4-0.6h6.8v-6.8
			C263.3,180.833,263.5,180.367,263.9,180z M579.3,316.15c0.366-0.4,0.833-0.601,1.4-0.601c0.566,0,1.05,0.2,1.45,0.601l3.3,3.3
			c0.366,0.366,0.55,0.833,0.55,1.399c0,0.567-0.184,1.051-0.55,1.45c-0.4,0.367-0.884,0.55-1.45,0.55s-1.033-0.183-1.4-0.55
			l-3.3-3.3c-0.399-0.4-0.6-0.883-0.6-1.45C578.7,316.983,578.9,316.517,579.3,316.15z M581.15,305.15
			c0.399-0.434,0.866-0.65,1.399-0.65c0.567,0,1.05,0.184,1.45,0.55c0.4,0.4,0.6,0.867,0.6,1.4s-0.184,1.017-0.55,1.45l-2.5,2.55
			c-0.399,0.399-0.866,0.6-1.399,0.6c-0.566,0-1.033-0.183-1.4-0.55c-0.434-0.4-0.65-0.867-0.65-1.4s0.184-1,0.551-1.399
			L581.15,305.15z M572.25,314.85c0.533,0,1,0.2,1.4,0.601c0.399,0.366,0.6,0.833,0.6,1.399c0,0.533-0.184,1-0.55,1.4l-3.351,3.35
			c-0.399,0.4-0.866,0.601-1.399,0.601c-0.567,0-1.05-0.184-1.45-0.55c-0.4-0.4-0.6-0.867-0.6-1.4c0-0.566,0.199-1.05,0.6-1.45
			l3.35-3.35C571.217,315.05,571.684,314.85,572.25,314.85z M566.45,305.3c0-0.566,0.2-1.033,0.6-1.399
			c0.366-0.4,0.833-0.601,1.4-0.601c0.566,0,1.05,0.2,1.45,0.601l2.6,2.6c0.367,0.367,0.55,0.833,0.55,1.4
			c0,0.566-0.183,1.05-0.55,1.449c-0.4,0.367-0.883,0.551-1.45,0.551c-0.566,0-1.033-0.184-1.399-0.551l-2.601-2.6
			C566.65,306.35,566.45,305.867,566.45,305.3z M574.05,236.75c-0.833-0.833-1.816-1.25-2.95-1.25c-1.133,0-2.116,0.417-2.949,1.25
			h0.05c-0.833,0.8-1.25,1.767-1.25,2.9c0,1.133,0.417,2.116,1.25,2.949h-0.05c0.833,0.801,1.816,1.2,2.949,1.2
			c1.134,0,2.117-0.399,2.95-1.2c0.8-0.833,1.2-1.816,1.2-2.949C575.25,238.517,574.85,237.55,574.05,236.75z M576.9,233.9
			c1.566,1.566,2.35,3.482,2.35,5.75c0,2.267-0.783,4.199-2.35,5.8c-1.601,1.566-3.533,2.35-5.801,2.35
			c-2.199,0-4.116-0.783-5.75-2.35c-1.6-1.601-2.399-3.533-2.399-5.8c0-2.268,0.8-4.184,2.399-5.75c1.634-1.601,3.551-2.4,5.75-2.4
			C573.367,231.5,575.3,232.3,576.9,233.9z M682.8,310.65c-0.166,0.5-0.483,0.899-0.95,1.199c-0.466,0.268-0.966,0.334-1.5,0.2
			c-41.666-11.033-87.516-18.883-137.55-23.55c-0.566-0.066-1.033-0.3-1.399-0.7c-0.367-0.433-0.518-0.917-0.45-1.45
			c0.066-0.566,0.316-1.033,0.75-1.399c0.399-0.367,0.884-0.517,1.45-0.45c50.266,4.733,96.333,12.633,138.199,23.7
			c0.534,0.133,0.95,0.433,1.25,0.899C682.866,309.566,682.934,310.083,682.8,310.65z M640.95,328.65
			c-0.167-0.533-0.116-1.033,0.149-1.5c0.268-0.5,0.667-0.817,1.2-0.95c0.534-0.167,1.05-0.117,1.55,0.149l4.551,2.551
			c0.467,0.267,0.783,0.666,0.949,1.199c0.134,0.533,0.066,1.051-0.199,1.551c-0.268,0.467-0.667,0.783-1.2,0.949
			c-0.534,0.134-1.034,0.067-1.5-0.199l-4.55-2.551C641.4,329.583,641.084,329.184,640.95,328.65z M648.15,317
			c0.333,0.434,0.482,0.917,0.449,1.45c-0.033,0.566-0.266,1.033-0.699,1.399l-3.45,3c-0.434,0.334-0.917,0.483-1.45,0.45
			c-0.566-0.033-1.017-0.267-1.35-0.7c-0.367-0.433-0.533-0.916-0.5-1.449c0.033-0.567,0.266-1.018,0.699-1.351l3.45-3
			c0.434-0.366,0.917-0.533,1.45-0.5C647.316,316.333,647.783,316.566,648.15,317z M633.95,325.9c0.466-0.268,0.966-0.317,1.5-0.15
			c0.533,0.133,0.933,0.45,1.2,0.95c0.266,0.467,0.333,0.967,0.199,1.5c-0.166,0.533-0.482,0.933-0.949,1.2l-5.25,2.85
			c-0.5,0.267-1.018,0.333-1.551,0.2c-0.533-0.167-0.934-0.483-1.199-0.95c-0.268-0.5-0.316-1.017-0.15-1.55
			c0.133-0.533,0.45-0.934,0.95-1.2L633.95,325.9z M633.3,313.6c0.534,0.033,0.983,0.268,1.351,0.7l3.25,3.8
			c0.333,0.434,0.482,0.934,0.449,1.5c-0.066,0.533-0.3,0.983-0.699,1.351c-0.434,0.333-0.917,0.483-1.45,0.45
			c-0.567-0.033-1.017-0.268-1.351-0.7l-3.25-3.8c-0.366-0.434-0.533-0.917-0.5-1.45c0.066-0.567,0.316-1.017,0.75-1.351
			C632.25,313.733,632.733,313.566,633.3,313.6z M651.35,279.05c-0.366-0.433-0.533-0.917-0.5-1.45
			c0.033-0.566,0.267-1.017,0.7-1.35c0.434-0.367,0.917-0.533,1.45-0.5c0.566,0.033,1.033,0.267,1.4,0.7l2.949,3.5
			c0.334,0.433,0.483,0.917,0.45,1.45c-0.033,0.566-0.267,1.033-0.7,1.399c-0.433,0.333-0.916,0.483-1.449,0.45
			c-0.567-0.033-1.017-0.267-1.351-0.7L651.35,279.05z M642.8,280.35c-0.333-0.433-0.45-0.916-0.35-1.449
			c0.066-0.567,0.316-1.018,0.75-1.351l3.75-2.75c0.433-0.333,0.933-0.45,1.5-0.35c0.533,0.066,0.966,0.316,1.3,0.75
			c0.334,0.433,0.467,0.933,0.4,1.5c-0.101,0.533-0.367,0.967-0.801,1.3l-3.75,2.75c-0.434,0.333-0.916,0.467-1.449,0.4
			C643.584,281.05,643.133,280.783,642.8,280.35z M640.65,268.1c-0.101-0.533,0.033-1.017,0.399-1.449
			c0.333-0.434,0.767-0.684,1.3-0.75c0.533-0.101,1.033,0.033,1.5,0.399l5.2,4c0.4,0.333,0.65,0.767,0.75,1.3
			c0.067,0.533-0.066,1.033-0.399,1.5c-0.367,0.434-0.816,0.684-1.351,0.75c-0.533,0.067-1.017-0.066-1.45-0.399l-5.199-4
			C640.967,269.083,640.717,268.633,640.65,268.1z M654.35,263.6c0.301,0.434,0.417,0.917,0.351,1.45l-0.9,4.9
			c-0.133,0.533-0.416,0.967-0.85,1.3c-0.467,0.3-0.967,0.417-1.5,0.35c-0.534-0.133-0.967-0.416-1.3-0.85
			c-0.301-0.467-0.4-0.967-0.301-1.5l0.9-4.9c0.1-0.533,0.384-0.967,0.85-1.3c0.434-0.3,0.917-0.399,1.45-0.3
			S654.017,263.133,654.35,263.6z M620.45,253.2c0.366,0.366,0.55,0.833,0.55,1.399c0,0.567-0.184,1.051-0.55,1.45
			c-0.4,0.367-0.884,0.55-1.45,0.55h-6.8v6.801c0,0.566-0.184,1.05-0.55,1.449c-0.4,0.367-0.884,0.551-1.45,0.551
			c-0.567,0-1.034-0.184-1.4-0.551c-0.399-0.399-0.6-0.883-0.6-1.449V256.6h-6.8c-0.566,0-1.033-0.183-1.4-0.55
			c-0.4-0.399-0.6-0.883-0.6-1.45c0-0.566,0.199-1.033,0.6-1.399c0.367-0.4,0.834-0.601,1.4-0.601h6.8v-6.8
			c0-0.566,0.2-1.033,0.6-1.399c0.366-0.4,0.833-0.601,1.4-0.601c0.566,0,1.05,0.2,1.45,0.601c0.366,0.366,0.55,0.833,0.55,1.399
			v6.8h6.8C619.566,252.6,620.05,252.8,620.45,253.2z M660.7,272.9c-0.3,0.467-0.717,0.767-1.25,0.899l-3.15,0.851
			c-0.533,0.133-1.033,0.066-1.5-0.2c-0.5-0.3-0.816-0.717-0.95-1.25c-0.133-0.533-0.05-1.033,0.25-1.5
			c0.267-0.5,0.684-0.817,1.25-0.95l3.15-0.85c0.5-0.134,1-0.051,1.5,0.25c0.467,0.267,0.767,0.666,0.9,1.199
			C661.033,271.883,660.967,272.4,660.7,272.9z M728,324.6c0.167-0.533,0.5-0.916,1-1.149s1.017-0.25,1.55-0.05
			c4.7,1.666,9.233,3.366,13.601,5.1c0.5,0.2,0.866,0.566,1.1,1.1c0.2,0.5,0.2,1,0,1.5s-0.55,0.867-1.05,1.101
			c-0.533,0.2-1.05,0.2-1.55,0c-4.301-1.733-8.784-3.417-13.45-5.05c-0.533-0.2-0.917-0.551-1.15-1.051S727.8,325.1,728,324.6z
			 M703.55,314.45c1.834,0.566,3.667,1.133,5.5,1.7c3.9,1.232,7.717,2.467,11.45,3.699c0.5,0.167,0.884,0.5,1.15,1
			c0.233,0.5,0.267,1.018,0.1,1.551c-0.167,0.5-0.5,0.883-1,1.149c-0.5,0.233-1,0.267-1.5,0.101c-3.7-1.233-7.5-2.467-11.4-3.7
			c-1.833-0.567-3.666-1.134-5.5-1.7l0.051,0.05c-4.667-1.399-9.351-2.75-14.051-4.05c-0.533-0.167-0.933-0.483-1.199-0.95
			c-0.301-0.5-0.367-1-0.2-1.5c0.133-0.533,0.45-0.933,0.95-1.2c0.466-0.3,0.966-0.366,1.5-0.199
			C694.134,311.667,698.85,313.017,703.55,314.45z M635.4,214.9c0-2.533-0.9-4.7-2.7-6.5c-1.833-1.834-4.017-2.75-6.55-2.75
			s-4.734,0.916-6.601,2.75h0.05c-1.833,1.8-2.75,3.967-2.75,6.5c0,2.566,0.917,4.767,2.75,6.6h-0.05c1.866,1.8,4.067,2.7,6.601,2.7
			s4.717-0.9,6.55-2.7C634.5,219.667,635.4,217.467,635.4,214.9z M626.15,201.65c3.666,0,6.8,1.3,9.399,3.899
			c2.567,2.567,3.851,5.684,3.851,9.351c0,3.699-1.283,6.85-3.851,9.449c-2.6,2.567-5.733,3.851-9.399,3.851
			c-3.601,0-6.734-1.283-9.4-3.851c-2.6-2.6-3.9-5.75-3.9-9.449c0-3.667,1.301-6.783,3.9-9.351
			C619.416,202.95,622.55,201.65,626.15,201.65z M575.25,196.9c0-0.567,0.2-1.033,0.6-1.4c0.367-0.4,0.834-0.6,1.4-0.6h6.8V188.1
			c0-0.566,0.2-1.033,0.601-1.399c0.366-0.4,0.833-0.601,1.399-0.601c0.567,0,1.05,0.2,1.45,0.601
			c0.367,0.366,0.55,0.833,0.55,1.399v6.801h6.8c0.566,0,1.051,0.199,1.45,0.6c0.366,0.367,0.55,0.833,0.55,1.4
			c0,0.566-0.184,1.05-0.55,1.449c-0.399,0.367-0.884,0.551-1.45,0.551h-6.8v6.8c0,0.566-0.183,1.05-0.55,1.45
			c-0.4,0.366-0.883,0.55-1.45,0.55c-0.566,0-1.033-0.184-1.399-0.55c-0.4-0.4-0.601-0.884-0.601-1.45v-6.8h-6.8
			c-0.566,0-1.033-0.184-1.4-0.551C575.45,197.95,575.25,197.467,575.25,196.9z" fill="#9BA8D5" clip-rule="evenodd" fill-rule="evenodd"></path>
	</g>
	<g>
		<g>
			<linearGradient y2="33.3009" x2="424.8999" y1="317.4004" x1="424.8999" gradientUnits="userSpaceOnUse" id="SVGID_1_">
				<stop style="stop-color:#478CCB" offset="0"></stop>
				<stop style="stop-color:#6AABDE" offset="1"></stop>
			</linearGradient>
			<path d="M494.4,56.7c-5.301-5.3-11.667-7.95-19.101-7.95H337
				c-7.433,0-13.783,2.65-19.05,7.95c-5.3,5.267-7.95,11.616-7.95,19.05V261.9c0,7.433,2.65,13.8,7.95,19.1
				c5.267,5.267,11.617,7.9,19.05,7.9h4.8c-0.2-1.467-0.3-2.967-0.3-4.5V98.25c0-9.1,3.233-16.866,9.7-23.3
				c6.433-6.467,14.2-9.7,23.3-9.7h125.8C498.934,62.117,496.967,59.267,494.4,56.7z M531.9,79.2
				c-5.301-5.3-11.667-7.95-19.101-7.95H374.5c-7.433,0-13.783,2.65-19.05,7.95c-5.3,5.267-7.95,11.616-7.95,19.05V284.4
				c0,2.232,0.233,4.366,0.7,6.399c0.033,0.101,0.083,0.233,0.15,0.4c1.133,4.6,3.5,8.7,7.1,12.3c5.267,5.267,11.617,7.9,19.05,7.9
				h138.3c7.434,0,13.8-2.634,19.101-7.9c5.266-5.3,7.899-11.667,7.899-19.1V98.25C539.8,90.816,537.166,84.467,531.9,79.2z
				 M536.15,74.95c6.434,6.434,9.649,14.2,9.649,23.3V284.4c0,9.1-3.216,16.883-9.649,23.35c-6.467,6.434-14.25,9.65-23.351,9.65
				H374.5c-9.1,0-16.867-3.217-23.3-9.65c-3.833-3.833-6.517-8.117-8.05-12.85H337c-9.1,0-16.867-3.217-23.3-9.65
				c-6.467-6.467-9.7-14.25-9.7-23.35V75.75c0-9.1,3.233-16.866,9.7-23.3c6.433-6.467,14.2-9.7,23.3-9.7h138.3
				c9.101,0,16.884,3.233,23.351,9.7c3.766,3.8,6.449,8.066,8.05,12.8h6.1C521.9,65.25,529.684,68.483,536.15,74.95z" fill="url(#SVGID_1_)" clip-rule="evenodd" fill-rule="evenodd"></path>
			<linearGradient y2="33.3012" x2="443.6494" y1="317.4004" x1="443.6494" gradientUnits="userSpaceOnUse" id="SVGID_2_">
				<stop style="stop-color:#478CCB;stop-opacity:0.702" offset="0"></stop>
				<stop style="stop-color:#6AABDE;stop-opacity:0.702" offset="1"></stop>
			</linearGradient>
			<path d="M511.65,239.3c0.566,0.567,0.85,1.267,0.85,2.101
				c0,0.833-0.283,1.55-0.85,2.149c-0.601,0.567-1.316,0.851-2.15,0.851H377.8c-0.833,0-1.533-0.283-2.1-0.851
				c-0.6-0.6-0.9-1.316-0.9-2.149c0-0.834,0.3-1.533,0.9-2.101c0.566-0.6,1.267-0.899,2.1-0.899h131.7
				C510.334,238.4,511.05,238.7,511.65,239.3z M509.5,272c0.834,0,1.55,0.3,2.15,0.9c0.566,0.566,0.85,1.267,0.85,2.1
				s-0.283,1.55-0.85,2.15c-0.601,0.566-1.316,0.85-2.15,0.85H377.8c-0.833,0-1.533-0.283-2.1-0.85c-0.6-0.601-0.9-1.317-0.9-2.15
				s0.3-1.533,0.9-2.1c0.566-0.601,1.267-0.9,2.1-0.9H509.5z M511.65,205.75c0.566,0.566,0.85,1.267,0.85,2.1
				c0,0.834-0.283,1.551-0.85,2.15c-0.601,0.566-1.316,0.85-2.15,0.85H377.8c-0.833,0-1.533-0.283-2.1-0.85
				c-0.6-0.6-0.9-1.316-0.9-2.15c0-0.833,0.3-1.533,0.9-2.1c0.566-0.6,1.267-0.9,2.1-0.9h131.7
				C510.334,204.85,511.05,205.15,511.65,205.75z M511.65,172.2c0.566,0.566,0.85,1.267,0.85,2.1c0,0.834-0.283,1.55-0.85,2.15
				c-0.601,0.566-1.316,0.85-2.15,0.85H377.8c-0.833,0-1.533-0.283-2.1-0.85c-0.6-0.601-0.9-1.316-0.9-2.15
				c0-0.833,0.3-1.533,0.9-2.1c0.566-0.601,1.267-0.9,2.1-0.9h131.7C510.334,171.3,511.05,171.6,511.65,172.2z M511.65,138.65
				c0.566,0.566,0.85,1.267,0.85,2.1s-0.283,1.55-0.85,2.15c-0.601,0.566-1.316,0.85-2.15,0.85H377.8c-0.833,0-1.533-0.283-2.1-0.85
				c-0.6-0.601-0.9-1.317-0.9-2.15s0.3-1.533,0.9-2.1c0.566-0.601,1.267-0.9,2.1-0.9h131.7
				C510.334,137.75,511.05,138.05,511.65,138.65z M511.65,105.1c0.566,0.567,0.85,1.268,0.85,2.101s-0.283,1.55-0.85,2.149
				c-0.601,0.567-1.316,0.851-2.15,0.851H377.8c-0.833,0-1.533-0.283-2.1-0.851c-0.6-0.6-0.9-1.316-0.9-2.149s0.3-1.533,0.9-2.101
				c0.566-0.6,1.267-0.899,2.1-0.899h131.7C510.334,104.2,511.05,104.5,511.65,105.1z" fill="url(#SVGID_2_)" clip-rule="evenodd" fill-rule="evenodd"></path>
		</g>
	</g>
	<g>
		<path d="M221,92.4c7.067-4.167,15.617-6.25,25.65-6.25
			s18.583,2.083,25.65,6.25h0.05c7.533,4.433,11.25,9.833,11.15,16.199c0.1,6.367-3.633,11.768-11.2,16.2
			c-0.533,0.3-1.083,0.601-1.65,0.9v10.05c0,0.5-0.167,0.95-0.5,1.35c-0.333,0.367-0.75,0.584-1.25,0.65
			c-0.533,0.033-1-0.083-1.4-0.35l-10.15-7.25c-5.2,0.6-8.767,0.899-10.7,0.899c-10.033,0-18.583-2.083-25.65-6.25
			c-7.566-4.433-11.3-9.833-11.2-16.2C209.7,102.233,213.434,96.833,221,92.4z M245.4,117.95c0.367-0.4,0.833-0.601,1.4-0.601
			c0.567,0,1.05,0.2,1.45,0.601c0.367,0.366,0.55,0.833,0.55,1.399v1.351c0,0.566-0.183,1.05-0.55,1.45
			c-0.4,0.366-0.883,0.55-1.45,0.55c-0.566,0-1.033-0.184-1.4-0.55c-0.4-0.4-0.6-0.884-0.6-1.45v-1.351
			C244.8,118.783,245,118.316,245.4,117.95z M223,95.85h0.05c-6.066,3.534-9.15,7.784-9.25,12.75c0.1,4.967,3.167,9.217,9.2,12.75
			h0.05c6.5,3.801,14.367,5.7,23.6,5.7c1.934,0,5.583-0.316,10.95-0.95c0.5-0.066,0.967,0.051,1.4,0.351l7.65,5.45v-7.4
			c0-0.366,0.1-0.7,0.3-1c0.2-0.333,0.466-0.583,0.8-0.75c0.867-0.467,1.717-0.934,2.55-1.4c6.034-3.533,9.1-7.783,9.2-12.75
			c-0.1-4.966-3.167-9.216-9.2-12.75c-6.533-3.8-14.417-5.699-23.65-5.699S229.533,92.05,223,95.85z M238.5,103.25
			c0-2.267,0.8-4.217,2.4-5.85c1.667-1.634,3.633-2.45,5.9-2.45c2.267,0,4.2,0.816,5.8,2.45h0.05c1.633,1.633,2.45,3.583,2.45,5.85
			c0,2.3-0.817,4.25-2.45,5.85c-0.033,0-0.05,0.018-0.05,0.051c-1,1.033-2.133,1.733-3.4,2.1v0.05
			c-0.133,0.033-0.267,0.067-0.4,0.101v2.55c0,0.566-0.183,1.05-0.55,1.45c-0.4,0.366-0.883,0.55-1.45,0.55
			c-0.566,0-1.033-0.184-1.4-0.55c-0.4-0.4-0.6-0.884-0.6-1.45V109.6c0-0.566,0.2-1.033,0.6-1.399c0.367-0.4,0.833-0.601,1.4-0.601
			c0.434,0,0.85-0.05,1.25-0.149H248c0.633-0.2,1.217-0.566,1.75-1.101c0.033-0.033,0.067-0.066,0.1-0.1c0.833-0.8,1.25-1.8,1.25-3
			c0-1.167-0.434-2.167-1.3-3v-0.05c-0.833-0.833-1.833-1.25-3-1.25c-1.167,0-2.183,0.417-3.05,1.25l-0.05,0.05
			c-0.8,0.833-1.2,1.833-1.2,3c0,0.3,0,0.583,0,0.85c0,0.567-0.183,1.051-0.55,1.45c-0.4,0.367-0.883,0.55-1.45,0.55
			c-0.566,0-1.033-0.183-1.4-0.55c-0.4-0.399-0.6-0.883-0.6-1.45C238.5,103.833,238.5,103.55,238.5,103.25z M576.95,132.5
			c0.7-0.434,1.45-0.55,2.25-0.35c0.8,0.199,1.417,0.666,1.85,1.399c0.4,0.7,0.5,1.45,0.3,2.25l-1.3,4.95
			c-0.2,0.8-0.649,1.417-1.35,1.85c-0.733,0.4-1.5,0.5-2.3,0.301c-0.801-0.2-1.4-0.65-1.801-1.351c-0.434-0.733-0.55-1.5-0.35-2.3
			l1.3-4.95C575.75,133.5,576.217,132.9,576.95,132.5z M584.5,100.9c0.2-0.801,0.666-1.417,1.4-1.851c0.732-0.399,1.5-0.5,2.3-0.3
			c0.767,0.2,1.366,0.667,1.8,1.4c0.4,0.733,0.5,1.5,0.3,2.3l-6,22.399c-0.2,0.768-0.667,1.367-1.399,1.801
			c-0.734,0.399-1.484,0.5-2.25,0.3c-0.801-0.2-1.417-0.667-1.851-1.4c-0.399-0.733-0.5-1.483-0.3-2.25L584.5,100.9z M581.2,66.55
			c0.7,0.467,1.134,1.101,1.3,1.9s0.017,1.55-0.45,2.25c-0.466,0.7-1.1,1.133-1.899,1.3l-20.75,4.3
			c-0.801,0.167-1.551,0.017-2.25-0.45c-0.7-0.466-1.117-1.1-1.25-1.899c-0.2-0.8-0.066-1.55,0.399-2.25
			c0.467-0.7,1.101-1.134,1.9-1.3l20.75-4.301C579.75,65.934,580.5,66.083,581.2,66.55z M579.45,44.4
			c0.8,0.199,1.417,0.666,1.85,1.399c0.4,0.7,0.5,1.45,0.3,2.25c-0.199,0.8-0.649,1.417-1.35,1.851l-24.3,14.35
			c-0.733,0.4-1.5,0.5-2.3,0.3c-0.801-0.2-1.4-0.649-1.801-1.35c-0.434-0.733-0.55-1.5-0.35-2.3c0.2-0.801,0.666-1.4,1.4-1.801
			l24.3-14.35C577.9,44.316,578.65,44.2,579.45,44.4z M555.3,33.35c0.8-0.133,1.534,0.034,2.2,0.5c0.7,0.467,1.117,1.117,1.25,1.95
			c0.166,0.8,0.017,1.55-0.45,2.25L547.1,54.2c-0.5,0.667-1.149,1.066-1.949,1.2c-0.834,0.133-1.584-0.033-2.25-0.5
			c-0.7-0.467-1.117-1.101-1.25-1.9c-0.167-0.833,0-1.583,0.5-2.25L553.35,34.6C553.816,33.9,554.467,33.483,555.3,33.35z" fill="#9BA8D5" clip-rule="evenodd" fill-rule="evenodd"></path>
	</g>
</g>
</svg>
