<?xml version="1.0" standalone="no"?><!DOCTYPE svg PUBLIC "-//W3C//DTD SVG 1.1//EN" "http://www.w3.org/Graphics/SVG/1.1/DTD/svg11.dtd"><svg t="1675338201770" class="icon" viewBox="0 0 1024 1024" version="1.1" xmlns="http://www.w3.org/2000/svg" p-id="1031" xmlns:xlink="http://www.w3.org/1999/xlink" width="200" height="200"><path d="M512 930.91c-231.358 0-418.91-187.552-418.91-418.91 0-231.358 187.552-418.91 418.91-418.91 231.358 0 418.91 187.552 418.91 418.91 0 231.358-187.552 418.91-418.91 418.91z" fill="#319BFD" p-id="1032"></path><path d="M642.354 350.716l-324.54 125.948c-12.312 4.784-18.41 18.634-13.652 30.954a23.882 23.882 0 0 0 16.76 14.616l152.468 36.29 15.348 141.592c1.412 13.134 13.2 22.63 26.348 21.196a23.852 23.852 0 0 0 19.414-14.378l138.48-324.522c5.19-12.152-0.454-26.22-12.6-31.386a23.76 23.76 0 0 0-18.026-0.31" fill="#FFFFFF" p-id="1033"></path></svg>