<?xml version="1.0" standalone="no"?><!DOCTYPE svg PUBLIC "-//W3C//DTD SVG 1.1//EN" "http://www.w3.org/Graphics/SVG/1.1/DTD/svg11.dtd"><svg t="1668024560561" class="icon" viewBox="0 0 1033 1024" version="1.1" xmlns="http://www.w3.org/2000/svg" p-id="8324" xmlns:xlink="http://www.w3.org/1999/xlink" width="201.7578125" height="200"><path d="M1015.764075 434.307775L554.003217 14.275603a54.906166 54.906166 0 0 0-74.123324 0L18.119035 434.307775A54.906166 54.906166 0 0 0 54.906166 529.844504h22.511528a54.906166 54.906166 0 0 1 54.906167 54.906166v274.530831a164.718499 164.718499 0 0 0 164.718498 164.718499h439.24933a164.718499 164.718499 0 0 0 164.718499-164.718499v-274.530831a54.906166 54.906166 0 0 1 54.906166-54.906166h22.511528a54.906166 54.906166 0 0 0 37.336193-95.536729z" fill="#DAD6CA" p-id="8325"></path><path d="M462.30992 639.656836h109.812332a54.906166 54.906166 0 0 1 54.906166 54.906167v329.436997h-219.624665v-329.436997a54.906166 54.906166 0 0 1 54.906167-54.906167z" fill="#A8A39A" p-id="8326"></path><path d="M599.575335 1024h-192.171582v-329.436997a54.906166 54.906166 0 0 1 4.941555-22.511528 54.906166 54.906166 0 0 1 22.511528-4.941555h109.812333a54.906166 54.906166 0 0 1 54.906166 54.906166zM23.609651 519.961394l456.270242-415.090617a54.906166 54.906166 0 0 1 74.123324 0l456.270241 415.090617a54.906166 54.906166 0 0 0 5.490617-85.653619L554.003217 14.275603a54.906166 54.906166 0 0 0-74.123324 0L18.119035 434.307775a54.906166 54.906166 0 0 0 5.490616 85.653619z" fill="#BAB5AA" p-id="8327"></path></svg>