<svg t="1681311043372" class="icon" viewBox="0 0 1024 1024" version="1.1" xmlns="http://www.w3.org/2000/svg" p-id="2457" width="200" height="200"><path d="M195.1 871.4l242.3-242.3 2.2 219.2c0 16.5 13.5 30 30 30s30-13.5 30-30l-2.2-285.1c0-8.8-3.8-16.7-9.8-22.2-5.5-6-13.4-9.8-22.2-9.8H169.8c-16.5 0-30 13.5-30 30s13.5 30 30 30h220.7L152.7 829c-11.7 11.7-11.7 30.8 0 42.4 11.6 11.6 30.7 11.6 42.4 0zM827.3 156.6L585 398.9l-2.2-219.2c0-16.5-13.5-30-30-30s-30 13.5-30 30l2.2 285.1c0 8.8 3.8 16.7 9.8 22.2 5.5 6 13.4 9.8 22.2 9.8h295.6c16.5 0 30-13.5 30-30s-13.5-30-30-30H631.9L869.7 199c11.7-11.7 11.7-30.8 0-42.4-11.7-11.7-30.8-11.7-42.4 0z" fill="#666666" p-id="2458"></path></svg>