<?xml version="1.0" standalone="no"?><!DOCTYPE svg PUBLIC "-//W3C//DTD SVG 1.1//EN" "http://www.w3.org/Graphics/SVG/1.1/DTD/svg11.dtd"><svg t="1681315598746" class="icon" viewBox="0 0 1024 1024" version="1.1" xmlns="http://www.w3.org/2000/svg" p-id="5415" xmlns:xlink="http://www.w3.org/1999/xlink" width="200" height="200"><path d="M0 102.4m51.2 0l278.016 0q51.2 0 51.2 51.2l0 275.712q0 51.2-51.2 51.2l-278.016 0q-51.2 0-51.2-51.2l0-275.712q0-51.2 51.2-51.2Z" fill="#1890FF" opacity=".99" p-id="5416"></path><path d="M431.1552 153.6m51.2 0l490.4448 0q51.2 0 51.2 51.2l0 0q0 51.2-51.2 51.2l-490.4448 0q-51.2 0-51.2-51.2l0 0q0-51.2 51.2-51.2Z" fill="#1890FF" opacity=".3" p-id="5417"></path><path d="M431.1552 342.6304m51.2 0l220.9792 0q51.2 0 51.2 51.2l0 0q0 51.2-51.2 51.2l-220.9792 0q-51.2 0-51.2-51.2l0 0q0-51.2 51.2-51.2Z" fill="#1890FF" opacity=".3" p-id="5418"></path><path d="M0 543.488m51.2 0l278.016 0q51.2 0 51.2 51.2l0 275.712q0 51.2-51.2 51.2l-278.016 0q-51.2 0-51.2-51.2l0-275.712q0-51.2 51.2-51.2Z" fill="#1890FF" opacity=".99" p-id="5419"></path><path d="M431.1552 563.2m51.2 0l490.4448 0q51.2 0 51.2 51.2l0 0q0 51.2-51.2 51.2l-490.4448 0q-51.2 0-51.2-51.2l0 0q0-51.2 51.2-51.2Z" fill="#1890FF" opacity=".3" p-id="5420"></path><path d="M431.1552 716.8m51.2 0l220.9792 0q51.2 0 51.2 51.2l0 0q0 51.2-51.2 51.2l-220.9792 0q-51.2 0-51.2-51.2l0 0q0-51.2 51.2-51.2Z" fill="#1890FF" opacity=".3" p-id="5421"></path></svg>