<?xml version="1.0" standalone="no"?><!DOCTYPE svg PUBLIC "-//W3C//DTD SVG 1.1//EN" "http://www.w3.org/Graphics/SVG/1.1/DTD/svg11.dtd"><svg t="1681315704136" class="icon" viewBox="0 0 1024 1024" version="1.1" xmlns="http://www.w3.org/2000/svg" p-id="8399" xmlns:xlink="http://www.w3.org/1999/xlink" width="200" height="200"><path d="M947.672 457.522L803.384 154.094C786.543 118.679 750.023 96 709.836 96H314.164c-40.187 0-76.707 22.679-93.548 58.094L76.328 457.522c-16.437 34.566-16.437 74.389 0 108.955l144.288 303.428C237.457 905.321 273.977 928 314.164 928h395.672c40.187 0 76.707-22.679 93.548-58.094l144.288-303.428c16.437-34.567 16.437-74.389 0-108.956z" fill="#92C8FF" p-id="8400"></path><path d="M512 512m-224 0a224 224 0 1 0 448 0 224 224 0 1 0-448 0Z" fill="#409EFF" p-id="8401"></path><path d="M512 512m-96 0a96 96 0 1 0 192 0 96 96 0 1 0-192 0Z" fill="#92C8FF" p-id="8402"></path></svg>