<?xml version="1.0" standalone="no"?><!DOCTYPE svg PUBLIC "-//W3C//DTD SVG 1.1//EN" "http://www.w3.org/Graphics/SVG/1.1/DTD/svg11.dtd"><svg t="1676814107215" class="icon" viewBox="0 0 1024 1024" version="1.1" xmlns="http://www.w3.org/2000/svg" p-id="6763" xmlns:xlink="http://www.w3.org/1999/xlink" width="200" height="200"><path d="M760.461 125.858h-53.265c-14.115 0-27.676 6.086-36.831 17.015-27.342 32.614-105.448 53.734-154.639 53.734-49.19 0-127.294-21.119-154.637-53.734-9.157-10.928-22.713-17.015-36.833-17.015h-53.263c-12.974 0-25.418 5.238-34.593 14.571L59.256 320.568c-11.371 11.568-11.371 30.317 0 41.885l108.045 109.871a28.784 28.784 0 0 0 41.189 0l3.557-3.622c3.875-3.937 10.504-1.151 10.504 4.425v383.088c0 24.886 19.841 45.064 44.313 45.064h497.724c24.472 0 44.313-20.178 44.313-45.064V473.127c0-5.576 6.631-8.363 10.506-4.425l3.564 3.622a28.776 28.776 0 0 0 41.182 0l108.043-109.871c11.376-11.568 11.376-30.317 0-41.885L795.057 140.429c-9.178-9.333-21.619-14.571-34.596-14.571z" fill="#FFA820" p-id="6764"></path><path d="M934.741 400.541l37.455-38.088c11.376-11.568 11.376-30.317 0-41.885L795.057 140.429c-6.979-7.097-15.847-11.818-25.401-13.677 85.374 66.175 145.868 162.904 165.085 273.789zM59.256 320.568c-11.371 11.568-11.371 30.318 0 41.885l9.608 9.771a439.318 439.318 0 0 1 37.138-99.192l-46.746 47.536zM222.551 856.215c0 24.886 19.841 45.064 44.313 45.064h107.653c-56.067-16.391-107.524-43.58-151.966-79.169v34.105zM808.901 856.215v-64.03c-51.286 50.39-114.798 88.373-185.68 109.094h141.367c24.472 0.001 44.313-20.178 44.313-45.064z" fill="#FEAC33" p-id="6765"></path><path d="M287.874 125.858h-16.882c-12.974 0-25.418 5.238-34.593 14.571L106.003 273.031a439.288 439.288 0 0 0-37.138 99.192l32.69 33.242c15.732-119.42 86.658-221.441 186.319-279.607zM861.809 455.813c0 6.377-0.16 12.717-0.469 19.017a29.738 29.738 0 0 0 2.813-2.506l70.588-71.783c-19.217-110.885-79.711-207.614-165.084-273.789a48.11 48.11 0 0 0-9.196-0.894h-53.265a48.528 48.528 0 0 0-24.281 6.495c107.464 67.546 178.894 187.16 178.894 323.46zM808.901 649.835c-66.445 112.382-188.855 187.754-328.868 187.754-99.219 0-189.594-37.853-257.482-99.9v84.422c44.442 35.589 95.898 62.778 151.966 79.169h248.704c70.882-20.721 134.394-58.704 185.68-109.094V649.835z" fill="#FEB133" p-id="6766"></path><path d="M808.901 649.835V473.127c0-5.576 6.631-8.363 10.506-4.425l3.564 3.622a28.757 28.757 0 0 0 38.369 2.506c0.309-6.301 0.469-12.64 0.469-19.017 0-136.3-71.43-255.913-178.894-323.46a47.07 47.07 0 0 0-12.55 10.52c-7.501 8.948-18.828 17.028-32.326 24.046 86.946 57.467 144.314 156.076 144.314 268.098 0 177.37-143.787 321.156-321.156 321.156-94.726 0-179.864-41.02-238.646-106.255v87.771c67.888 62.047 158.263 99.9 257.482 99.9 140.013 0 262.423-75.372 328.868-187.754zM350.398 133.49c-7.733-4.958-16.81-7.632-26.142-7.632h-36.382c-99.661 58.166-170.587 160.187-186.32 279.608l38.647 39.3c-0.097-3.239-0.16-6.487-0.16-9.749-0.001-138.429 87.583-256.398 210.357-301.527z" fill="#FEB633" p-id="6767"></path><path d="M382.393 160.631c-8.646-5.432-15.951-11.374-21.304-17.759a47.055 47.055 0 0 0-10.69-9.382C227.624 178.619 140.04 296.588 140.04 435.017c0 3.263 0.064 6.51 0.16 9.749l27.1 27.558c6.336 6.444 14.865 9.292 23.145 8.556-5.616-21.278-8.621-43.617-8.621-66.659 0-123.251 85.588-226.502 200.569-253.59zM461.197 756.173c177.37 0 321.156-143.787 321.156-321.156 0-112.023-57.368-210.631-144.314-268.098-18.633 9.689-41.405 17.35-64.001 22.461 77.092 45.246 128.86 128.992 128.86 224.841 0 143.891-116.646 260.537-260.537 260.537-92.395 0-173.552-48.099-219.81-120.621v95.781c58.782 65.235 143.92 106.255 238.646 106.255z" fill="#FFBC34" p-id="6768"></path><path d="M442.361 674.757c143.891 0 260.537-116.646 260.537-260.537 0-95.849-51.768-179.594-128.86-224.841-20.699 4.682-41.246 7.226-58.312 7.226-39.56 0-97.815-13.662-133.333-35.975-114.981 27.088-200.568 130.339-200.568 253.59 0 23.043 3.005 45.381 8.621 66.659 6.582-0.585 13.006-3.434 18.044-8.556l3.557-3.622c3.875-3.937 10.504-1.151 10.504 4.425v81.01c46.258 72.522 127.415 120.621 219.81 120.621z m-18.836-481.25c110.411 0 199.917 89.506 199.917 199.917s-89.506 199.917-199.917 199.917-199.917-89.506-199.917-199.917 89.506-199.917 199.917-199.917z" fill="#FFC134" p-id="6769"></path><path d="M423.525 593.342c110.411 0 199.917-89.506 199.917-199.917s-89.506-199.917-199.917-199.917-199.917 89.506-199.917 199.917 89.506 199.917 199.917 199.917z m-18.836-360.011c76.932 0 139.298 62.366 139.298 139.298s-62.366 139.298-139.298 139.298-139.298-62.366-139.298-139.298 62.366-139.298 139.298-139.298z" fill="#FFC634" p-id="6770"></path><path d="M404.689 372.629m-139.298 0a139.298 139.298 0 1 0 278.596 0 139.298 139.298 0 1 0-278.596 0Z" fill="#FFCB34" p-id="6771"></path><path d="M760.461 143.858c8.205 0 15.933 3.264 21.762 9.192l177.139 180.139c4.513 4.588 4.513 12.054-0.001 16.643L851.318 459.703c-2.089 2.125-4.844 3.295-7.757 3.295-2.912 0-5.667-1.17-7.759-3.298l-3.566-3.625c-4.581-4.654-10.666-7.217-17.136-7.217-13.344 0-24.199 10.887-24.199 24.269v383.088c0 14.923-11.804 27.064-26.313 27.064H266.864c-14.509 0-26.313-12.141-26.313-27.064V473.127c0-13.382-10.855-24.269-24.198-24.269-6.469 0-12.554 2.563-17.15 7.232l-3.545 3.611c-2.091 2.126-4.848 3.297-7.763 3.297-2.914 0-5.669-1.17-7.759-3.295L72.092 349.834c-4.512-4.59-4.512-12.058-0.002-16.646l177.146-180.141c5.825-5.926 13.552-9.189 21.756-9.189h53.263c9.008 0 17.405 3.854 23.039 10.579 18.759 22.376 52.449 36.641 77.409 44.669 30.18 9.706 64.206 15.501 91.022 15.501 26.817 0 60.844-5.795 91.024-15.501 24.96-8.027 58.651-22.293 77.413-44.674 5.63-6.72 14.025-10.574 23.033-10.574h53.266m0-18h-53.265c-14.115 0-27.676 6.086-36.831 17.014-27.341 32.615-105.448 53.734-154.639 53.734-49.19 0-127.294-21.119-154.637-53.734-9.157-10.928-22.713-17.014-36.833-17.014h-53.263c-12.974 0-25.418 5.238-34.593 14.571L59.256 320.568c-11.371 11.568-11.371 30.318 0 41.885L167.3 472.324c5.686 5.783 13.14 8.674 20.593 8.674 7.454 0 14.908-2.892 20.596-8.674l3.557-3.622c1.253-1.273 2.795-1.843 4.306-1.843 3.163 0 6.198 2.496 6.198 6.269v383.088c0 24.886 19.841 45.064 44.313 45.064h497.724c24.472 0 44.313-20.178 44.313-45.064V473.127c0-3.773 3.036-6.269 6.199-6.269 1.512 0 3.053 0.57 4.307 1.843l3.564 3.622c5.686 5.783 13.138 8.674 20.59 8.674s14.905-2.892 20.592-8.674l108.043-109.871c11.376-11.568 11.376-30.318 0-41.885L795.057 140.429c-9.178-9.333-21.619-14.571-34.596-14.571z" fill="#FFA820" p-id="6772"></path><path d="M309.335 384.04h206.779c19.036 0 34.463 15.429 34.463 34.462v275.707c0 19.034-15.428 34.465-34.463 34.465H309.335c-19.034 0-34.463-15.431-34.463-34.465V418.502c-0.001-19.033 15.429-34.462 34.463-34.462z" fill="#FFE3B4" p-id="6773"></path><path d="M167.711 303.033c-7.029-7.029-7.029-18.427 0-25.456l87.767-87.767c7.029-7.029 18.427-7.029 25.456 0s7.029 18.427 0 25.456l-87.767 87.767c-7.029 7.029-18.427 7.029-25.456 0zM118.493 352.251c-7.029-7.029-7.03-18.426 0-25.456l7.457-7.457c7.029-7.029 18.427-7.029 25.456 0s7.029 18.427 0 25.456l-7.457 7.457c-7.03 7.03-18.427 7.029-25.456 0z" fill="#FFFFFF" p-id="6774"></path></svg>