<?xml version="1.0" standalone="no"?><!DOCTYPE svg PUBLIC "-//W3C//DTD SVG 1.1//EN" "http://www.w3.org/Graphics/SVG/1.1/DTD/svg11.dtd"><svg t="1675839164115" class="icon" viewBox="0 0 1024 1024" version="1.1" xmlns="http://www.w3.org/2000/svg" p-id="2888" xmlns:xlink="http://www.w3.org/1999/xlink" width="200" height="200"><path d="M0 0h1024v1024H0V0z" fill="#202425" opacity=".01" p-id="2889"></path><path d="M722.670933 102.4a68.266667 68.266667 0 0 1 48.264534 20.002133L978.602667 330.069333a68.266667 68.266667 0 0 1 2.935466 93.457067L563.2 897.706667a68.266667 68.266667 0 0 1-102.4 0L42.427733 423.594667A68.266667 68.266667 0 0 1 45.397333 330.069333l207.701334-207.701333A68.266667 68.266667 0 0 1 301.329067 102.4h421.341866z" fill="#FF7744" p-id="2890"></path><path d="M457.386667 302.660267L307.2 102.4h409.6l-150.186667 200.260267a68.266667 68.266667 0 0 1-109.226666 0z" fill="#FFAA44" p-id="2891"></path><path d="M239.342933 371.063467a51.2 51.2 0 0 1 72.260267 4.8128L512 604.910933l200.3968-229.034666a51.2 51.2 0 1 1 77.073067 67.447466l-238.933334 273.066667a51.2 51.2 0 0 1-77.073066 0l-238.933334-273.066667a51.2 51.2 0 0 1 4.8128-72.260266z" fill="#FFFFFF" p-id="2892"></path></svg>