<svg id="图层_1" data-name="图层 1" xmlns="http://www.w3.org/2000/svg" xmlns:xlink="http://www.w3.org/1999/xlink" viewBox="0 0 1024 1024"><defs><style>.cls-1{fill:none;}.cls-2{fill:#8bbdea;}.cls-3{fill:#b6dcff;}.cls-4{fill:#0083ef;}.cls-5{fill:url(#未命名的渐变_185);}.cls-6{fill:#047cf8;}.cls-7{fill:url(#未命名的渐变_203);}.cls-8{fill:#3b9ffd;}.cls-9{fill:url(#未命名的渐变_137);}.cls-10{fill:url(#未命名的渐变_137-2);}.cls-11{fill:url(#未命名的渐变_26);}.cls-12{fill:url(#未命名的渐变_200);}.cls-13{fill:#0f82f8;opacity:0.32;}.cls-14{fill:#fff;}.cls-15{isolation:isolate;}.cls-16{clip-path:url(#clip-path);}.cls-17{fill:#828282;}.cls-18{clip-path:url(#clip-path-2);}.cls-19{clip-path:url(#clip-path-3);}.cls-20{clip-path:url(#clip-path-4);}</style><linearGradient id="未命名的渐变_185" x1="395.54" y1="408.49" x2="369.31" y2="470.44" gradientUnits="userSpaceOnUse"><stop offset="0" stop-color="#45a3fd"/><stop offset="0.52" stop-color="#0089ff"/><stop offset="1" stop-color="#0079f7"/></linearGradient><linearGradient id="未命名的渐变_203" x1="371.39" y1="695.04" x2="371.39" y2="736.08" gradientUnits="userSpaceOnUse"><stop offset="0.01" stop-color="#047cf8"/><stop offset="1" stop-color="#0070f3"/></linearGradient><linearGradient id="未命名的渐变_137" x1="1531.87" y1="6247.59" x2="1545.08" y2="6279.67" gradientTransform="translate(0 -14339.23) scale(1 3.54)" gradientUnits="userSpaceOnUse"><stop offset="0.01" stop-color="#51a6f9"/><stop offset="1" stop-color="#0070f3"/></linearGradient><linearGradient id="未命名的渐变_137-2" x1="70" y1="17.55" x2="2234.47" y2="904.63" gradientTransform="matrix(1, 0, 0, 1, 0, 0)" xlink:href="#未命名的渐变_137"/><linearGradient id="未命名的渐变_26" x1="405.26" y1="418.8" x2="649.05" y2="563.08" gradientUnits="userSpaceOnUse"><stop offset="0" stop-color="#0089ff"/><stop offset="1" stop-color="#0070f3"/></linearGradient><linearGradient id="未命名的渐变_200" x1="668.46" y1="237.61" x2="651.37" y2="277.98" gradientUnits="userSpaceOnUse"><stop offset="0" stop-color="#0070f3"/><stop offset="1" stop-color="#3b9ffd"/></linearGradient><clipPath id="clip-path"><path class="cls-1" d="M518.24,567.55l-13.7-10a18.56,18.56,0,0,1-2.2-1.88l13.7,10A18.56,18.56,0,0,0,518.24,567.55Z"/></clipPath><clipPath id="clip-path-2"><path class="cls-2" d="M577,458.12l13.7,10c-7.27-5.29-18.37-5.22-31.14,1.23l-13.7-10C558.6,452.9,569.7,452.83,577,458.12Z"/></clipPath><clipPath id="clip-path-3"><path class="cls-3" d="M453.22,640.33l-13.7-10c-3.44-2.5-5.37-7.1-5.12-13.47.58-14.67,12.59-33.27,26.78-41.46,7.84-4.52,14.73-4.93,19.22-1.92l13.7,10c-4.49-3-11.38-2.61-19.22,1.92-14.19,8.2-26.2,26.79-26.78,41.46C447.85,633.23,449.79,637.83,453.22,640.33Z"/></clipPath><clipPath id="clip-path-4"><path class="cls-2" d="M547.94,437.27l-13.7-10c2.24,1.63,5.74,1.47,9.75-.84,7.07-4.08,13.06-13.36,13.35-20.67.13-3.18-.84-5.47-2.55-6.72l13.7,10c1.71,1.25,2.68,3.54,2.55,6.72-.29,7.31-6.28,16.59-13.35,20.67C553.68,438.74,550.17,438.9,547.94,437.27Z"/></clipPath></defs><title>节点管理2.5D</title><path class="cls-4" d="M417.84,422.63,387.35,405l-19.13,11.38c-5.47,3.26-9.95,10.39-9.95,15.86v29.22l27.85,16.08Z"/><path class="cls-5" d="M417.84,422.63,387.35,405l-19.13,11.38c-5.47,3.26-9.95,10.39-9.95,15.86v29.22l27.85,16.08Z"/><path class="cls-6" d="M381.08,699.49V474.65l-22.8-13.17v267c0,.35.07-38.55.1-38.23h0Z"/><path class="cls-4" d="M368.22,732.56l12.86-7.65V699.49l-22.7-9.19v39.19C358.9,734.17,363.1,735.61,368.22,732.56Z"/><path class="cls-7" d="M381.08,740.24V699.49l-22.7-9.19s-.46,35.4,0,39.19,3,4.35,3,4.35L384.61,746v-.31C382.47,745.12,381.08,743.26,381.08,740.24Z"/><path class="cls-4" d="M384.61,700.92v21.89L664.49,556.27c5.47-3.25,9.95-10.39,9.95-15.86V259.48l-265.52,158,8.93,5.15-31.72,54.94-5-2.91V699.49Z"/><polygon class="cls-4" points="381.08 699.49 381.08 724.91 384.61 722.81 384.61 700.92 381.08 699.49"/><polygon class="cls-8" points="387.35 405.02 408.92 417.47 646.68 275.99 626 263.02 387.35 405.02"/><polygon class="cls-9" points="646.68 275.99 646.68 275.99 674.43 259.48 646.68 275.99"/><path class="cls-10" d="M694.59,250.74c-1.82-.9-4.41-.63-7.3,1.09l-12.86,7.65L646.68,276,650,278Z"/><path class="cls-11" d="M694.59,250.74c-1.82-.9-4.41-.63-7.3,1.09l-12.86,7.65L646.68,276,408.92,417.47,391,428.12c-5.47,3.26-9.95,10.39-9.95,15.86V740.24c0,3,1.39,4.87,3.53,5.43,1.74.45,4,.06,6.42-1.4L687.29,568c5.47-3.26,9.95-10.39,9.95-15.86V255.86C697.24,253.27,696.21,251.54,694.59,250.74Z"/><path class="cls-4" d="M674.43,244.15c0-5.47-4.48-7.28-9.95-4L626,263l20.68,13,27.75-16.51Z"/><path class="cls-12" d="M672.05,239.13l-.06,0c-1.83-1-4.5-.83-7.51,1L626,263l20.68,13,27.75-16.51,12.86-7.65c2.89-1.72,5.48-2,7.3-1.09l0,0Z"/><polygon class="cls-13" points="364.56 795.33 410.01 822.28 713.76 641.06 668.48 614 364.56 795.33"/><path class="cls-2" d="M643.64,516.73v-.08c.07-.33.12-.65.17-1,0-.17.06-.34.09-.5.06-.49.11-1,.13-1.44.13-3.17-.84-5.46-2.55-6.7l-13.7-10c1.71,1.24,2.68,3.53,2.55,6.7,0,.47-.06,1-.13,1.44,0,.16-.06.32-.08.48-.05.33-.11.66-.18,1,0,.18-.09.37-.14.55s-.16.65-.26,1-.23.73-.36,1.09l-.09.25c-.16.44-.34.89-.53,1.33l-.14.31q-.24.55-.51,1.09l-.12.25q-.32.64-.68,1.26l-.15.26c-.24.41-.48.81-.74,1.21l0,.08c-.27.41-.55.82-.84,1.22l-.2.27c-.29.4-.59.8-.9,1.18l-.09.11c-.28.35-.57.68-.86,1l-.31.34-.71.75-.4.41-.54.51c-.25.23-.49.46-.74.68l-.47.39q-.55.46-1.11.87l-.46.34c-.52.36-1,.71-1.57,1s-.93.51-1.39.72l-.44.19c-.3.13-.59.25-.88.35l-.67.21c-.24.07-.49.15-.72.2l-.38.08c-.31.06-.61.1-.9.13l-.23,0a8,8,0,0,1-1,0l-.19,0a6.59,6.59,0,0,1-1-.16l-.09,0a5.74,5.74,0,0,1-.91-.32l0,0a5.28,5.28,0,0,1-.89-.52l13.7,10,.36.24a5.35,5.35,0,0,0,.51.27h0l0,0,.48.19.44.13.09,0h.05q.3.07.62.12l.31,0,.19,0,.18,0q.36,0,.74,0h.12l.23,0,.48,0,.41-.08.38-.08.22,0c.16,0,.33-.11.5-.16l.67-.21.19-.06c.23-.08.46-.19.69-.29l.44-.19c.45-.21.92-.45,1.38-.72s1.05-.65,1.57-1l.45-.33q.57-.42,1.12-.87l.28-.22.19-.18c.25-.22.5-.45.75-.68l.38-.35.16-.16.4-.41.43-.44.28-.31.31-.35.25-.27.62-.74L638,528l0,0q.34-.43.68-.87l.2-.27.2-.28.23-.32q.3-.43.58-.87l0,0,.05-.08.48-.76.25-.43.15-.26.12-.2q.26-.46.5-.93l.07-.14.12-.25.28-.57.23-.52.14-.32.08-.18q.23-.55.44-1.11v0l.08-.25c.11-.32.22-.64.32-1l0-.14c.1-.33.18-.65.26-1C643.55,517,643.6,516.89,643.64,516.73Z"/><path class="cls-2" d="M605.48,536c0-1,.14-2,.29-3.08,0-.35.13-.71.19-1.06.12-.7.24-1.4.4-2.11.1-.42.23-.85.34-1.28.17-.66.34-1.32.55-2,.09-.28.19-.56.28-.84.31-.92.63-1.85,1-2.77l-13.7-10q-.29.73-.56,1.46c-.16.44-.29.87-.44,1.31-.09.28-.19.56-.28.84,0,.13-.09.25-.13.38-.16.54-.29,1.07-.43,1.61s-.24.85-.34,1.28c0,.07,0,.15-.06.22-.14.64-.24,1.26-.34,1.89-.06.35-.14.71-.19,1.06-.15,1-.25,2.07-.29,3.08-.25,6.37,1.69,11,5.12,13.46l13.7,10C607.16,547,605.22,542.37,605.48,536Z"/><path class="cls-3" d="M616.35,509.15l.2-.26c.62-.82,1.26-1.62,1.92-2.41l.39-.46q1.05-1.24,2.16-2.41l.64-.65q.81-.82,1.64-1.61c.42-.4.84-.78,1.27-1.16s1.12-1,1.69-1.46l.45-.37q1.21-1,2.45-1.83l.49-.34c.86-.59,1.73-1.15,2.61-1.66s1.57-.86,2.34-1.23l.36-.18c.73-.34,1.45-.65,2.16-.92l.38-.14q1.22-.44,2.39-.74l.39-.1c.6-.14,1.19-.26,1.76-.35h.05c.52-.08,1-.12,1.52-.15l.47,0H645l.49,0,.8.07.46.05c.26,0,.52.09.78.14l.39.08c.3.07.59.16.88.26l.22.07q.53.19,1,.42l.26.14c.24.12.48.25.71.38s.54.33.79.52l-13.7-10q-.35-.25-.72-.48l-.07,0c-.23-.14-.47-.26-.71-.38l-.23-.13h0a11.14,11.14,0,0,0-1-.42h0l-.2-.06c-.29-.09-.58-.18-.88-.26l-.07,0-.32-.06-.78-.14-.14,0-.32,0-.8-.07-.22,0h-1.49l-.16,0c-.5,0-1,.08-1.52.15h-.05c-.57.09-1.16.21-1.76.35l-.23,0-.16,0q-1.17.3-2.39.75l-.18.06-.19.08c-.71.27-1.43.57-2.16.92l-.36.18c-.77.37-1.55.78-2.34,1.23s-1.75,1.07-2.61,1.66l-.49.34q-1.24.87-2.45,1.83l-.46.37c-.29.24-.59.47-.88.72s-.54.5-.81.74c-.43.38-.85.76-1.27,1.15-.18.17-.36.32-.54.49-.37.36-.73.75-1.1,1.12l-.64.65-.24.25q-.85.91-1.68,1.87l-.24.29-.39.47c-.29.34-.58.68-.86,1s-.71.91-1.06,1.38l-.2.26-.09.12q-.64.86-1.26,1.75l-.56.83-.32.48-.3.45q-.57.88-1.11,1.77l-.42.7,13.7,10c.58-1,1.19-2,1.83-2.93l.32-.48C615.06,510.93,615.69,510,616.35,509.15Z"/><polygon class="cls-2" points="594.25 514.89 580.55 504.92 598.59 505.28 612.29 515.25 594.25 514.89"/><path class="cls-14" d="M550.9,607.23c15.36-8.87,30.62-21.79,44.11-37.39l6.07,7.75c-15.52,17.93-33.05,32.8-50.71,43-19.14,11-37.49,16.13-53.09,14.7L504.71,620C518.28,621.27,534.25,616.84,550.9,607.23Z"/><polygon class="cls-2" points="497.29 635.27 483.58 625.31 491.01 610.07 504.71 620.04 497.29 635.27"/><path class="cls-3" d="M594.94,569.92l.08-.09-13.7-10q-2.57,3-5.23,5.82c-1.53,1.64-3.09,3.23-4.65,4.8l-1,1c-1.32,1.3-2.65,2.56-4,3.81l-1.15,1.08q-2.54,2.33-5.12,4.52l-.52.44q-2.55,2.15-5.13,4.17l-.43.33q-2.63,2-5.28,3.93l-.32.23q-2.71,1.92-5.44,3.69l-.19.12q-2.8,1.8-5.62,3.43c-1.31.76-2.62,1.47-3.92,2.16l-1.08.57q-1.58.82-3.15,1.58l-.81.39q-1.91.9-3.8,1.71l-.9.37q-1.52.63-3,1.2l-1,.37c-1.34.49-2.66.94-4,1.35l-.69.2q-1.74.53-3.45,1l-.9.23c-.82.2-1.63.38-2.44.54l-.74.16q-1.57.31-3.12.54l-1.19.15c-.54.07-1.08.14-1.62.2l-1.23.1c-.51,0-1,.09-1.54.12s-1,0-1.54.06l-1,0c-.56,0-1.11,0-1.67,0l-.89,0c-.84,0-1.67-.09-2.49-.16l13.7,10q1.19.11,2.41.16h.95c.56,0,1.12,0,1.69,0l1,0c.44,0,.88,0,1.32,0l.23,0c.51,0,1-.08,1.53-.12l1.23-.1c.53-.06,1.07-.13,1.61-.2l1.06-.13.13,0q1.55-.23,3.12-.54l.73-.16c.81-.17,1.63-.35,2.45-.55l.36-.08.54-.15q1.71-.44,3.45-1l.69-.2c1.32-.41,2.64-.87,4-1.35l.37-.13.62-.24q1.5-.57,3-1.2l.9-.37q1.89-.81,3.81-1.71l.8-.39q1.58-.76,3.16-1.58l1.07-.56c1.3-.69,2.61-1.41,3.92-2.16q2.81-1.62,5.62-3.43l.19-.12q2.73-1.76,5.44-3.69l.32-.23q2.65-1.89,5.28-3.93l.44-.34q2.58-2,5.13-4.17l.52-.43.39-.33q2.38-2,4.73-4.2c.38-.35.76-.72,1.15-1.08,1-.93,2-1.85,3-2.81l1-1,1-1c1.54-1.54,3.07-3.1,4.57-4.71l.09-.1Q592.4,572.85,594.94,569.92Z"/><path class="cls-3" d="M585.75,506.67c0-.06,0-.13,0-.19.18-.83.31-1.65.44-2.47.07-.41.16-.83.21-1.24.16-1.22.27-2.43.32-3.61.32-8-2.12-13.76-6.43-16.9l-13.7-10c4.31,3.13,6.74,8.91,6.43,16.9,0,1.18-.16,2.39-.32,3.61-.05.41-.15.83-.21,1.24-.13.82-.26,1.64-.44,2.47-.1.46-.23.92-.35,1.38-.2.82-.4,1.63-.65,2.46s-.58,1.83-.9,2.75c-.08.21-.14.43-.22.64-.41,1.12-.86,2.23-1.33,3.35l-.35.79q-.61,1.37-1.28,2.74l-.31.64q-.81,1.6-1.71,3.18l-.39.67c-.59,1-1.2,2-1.84,3l-.13.21c-.67,1-1.38,2.06-2.1,3.07l-.5.7c-.74,1-1.49,2-2.27,3l-.24.29c-.7.87-1.43,1.72-2.17,2.55l-.78.87c-.58.64-1.18,1.26-1.78,1.88-.34.35-.67.7-1,1s-.9.86-1.36,1.28c-.62.58-1.25,1.16-1.88,1.71-.83.72-1.67,1.44-2.53,2.11l0,0c-.94.74-1.9,1.42-2.86,2.09l-.72.49c-1,.65-2,1.28-2.94,1.85s-2,1.08-2.94,1.55L536,543c-.92.43-1.82.81-2.71,1.15l-.73.27-.86.29-.87.27-.84.24-.66.16c-.75.18-1.49.33-2.21.44h-.07c-.65.09-1.28.15-1.91.19l-.58,0c-.39,0-.78,0-1.16,0l-.61,0c-.34,0-.68-.05-1-.09l-.57-.07c-.33,0-.66-.11-1-.18l-.49-.1c-.38-.09-.75-.2-1.11-.32l-.27-.08q-.67-.23-1.3-.53l-.32-.17c-.31-.15-.61-.31-.9-.48s-.67-.41-1-.65h0l13.7,10q.44.32.9.6l.09.05c.29.17.59.33.9.48l.29.16h0a14,14,0,0,0,1.3.53h0l.26.08c.36.12.72.23,1.1.32l.09,0,.41.08c.32.07.64.13,1,.18l.18,0,.4,0c.33,0,.67.07,1,.09l.28,0h.33c.38,0,.77,0,1.16,0h.38l.2,0c.62,0,1.26-.1,1.91-.19h.07c.72-.11,1.46-.26,2.21-.44l.29-.06.38-.11.83-.23.88-.27.86-.29.48-.17.25-.1c.89-.34,1.79-.72,2.71-1.15l.45-.22c1-.47,1.94-1,2.94-1.55s2-1.2,2.94-1.85l.72-.49c1-.67,1.92-1.35,2.86-2.09l0,0q1-.81,2-1.67l.49-.45c.64-.55,1.26-1.13,1.88-1.71.32-.3.65-.57,1-.87l.41-.41c.34-.34.67-.69,1-1s.73-.73,1.08-1.1.47-.52.7-.78l.78-.87.61-.68c.53-.61,1-1.24,1.56-1.87l.24-.28.07-.08q.87-1.08,1.7-2.2l.5-.69.5-.69.58-.8q.75-1.08,1.47-2.19l0-.08.13-.21c.41-.64.81-1.28,1.2-1.92.22-.36.42-.73.64-1.1l.38-.66.29-.51q.65-1.16,1.25-2.33l.17-.34.32-.65c.24-.48.48-1,.71-1.44s.38-.87.58-1.3l.35-.79.2-.46q.59-1.4,1.1-2.79l0-.09c.08-.21.14-.43.22-.64.28-.8.56-1.61.81-2.41,0-.11.06-.23.09-.34.25-.82.45-1.64.65-2.46C585.53,507.47,585.66,507.07,585.75,506.67Z"/><path class="cls-2" d="M623.56,422.6l-13.7-10c11.82,8.59,18.17,24.45,17.34,45.31l13.7,10C641.73,447,635.38,431.19,623.56,422.6Z"/><g class="cls-15"><g class="cls-16"><g class="cls-15"><path class="cls-17" d="M518.24,567.55l-13.7-10a18.56,18.56,0,0,1-2.2-1.88l13.7,10a18.56,18.56,0,0,0,2.2,1.88"/></g></g></g><path class="cls-2" d="M486.25,607.59v-.08c.07-.33.12-.66.18-1,0-.16.06-.33.08-.49.06-.49.11-1,.13-1.44.13-3.17-.84-5.46-2.55-6.71l-13.7-10c1.71,1.24,2.68,3.53,2.55,6.71,0,.47-.06,1-.13,1.44,0,.16-.06.33-.08.49-.05.33-.1.65-.18,1s-.09.37-.14.55-.16.65-.26,1-.23.72-.35,1.08l-.09.26c-.16.44-.34.89-.53,1.33l-.14.32q-.24.54-.51,1.09l-.13.26q-.32.63-.68,1.26l-.15.26c-.23.4-.47.8-.73,1.19l-.06.09c-.27.41-.55.82-.83,1.22l-.2.28c-.29.4-.59.8-.9,1.18l-.09.1c-.28.35-.57.69-.87,1l-.31.34-.71.75-.41.41L464,612c-.25.23-.49.46-.75.68l-.47.4q-.55.45-1.11.87l-.46.33c-.52.36-1,.7-1.57,1s-.93.51-1.39.72l-.44.19c-.3.13-.59.25-.88.35s-.45.14-.67.21-.49.15-.72.2l-.38.08c-.31.06-.61.1-.9.13l-.23,0a7.91,7.91,0,0,1-1,0l-.19,0a6.6,6.6,0,0,1-1-.16l-.09,0a5.72,5.72,0,0,1-.91-.32l0,0a5.3,5.3,0,0,1-.89-.52l13.7,10,.36.24a5.4,5.4,0,0,0,.51.27h0l0,0,.48.19.44.13.09,0h0q.3.07.62.11l.31,0,.19,0,.17,0q.36,0,.74,0h.13l.24,0,.48,0,.41-.08.38-.08.22,0c.16,0,.33-.11.5-.16s.45-.13.67-.21l.19-.06c.23-.08.46-.19.69-.29l.44-.19c.46-.21.92-.45,1.39-.72s1.05-.65,1.57-1l.46-.33q.57-.42,1.12-.87l.28-.22.2-.18c.25-.22.5-.45.74-.68l.38-.35.16-.17.4-.41.43-.44.28-.31.31-.34.24-.27.62-.75.09-.11,0,0q.34-.43.68-.87l.2-.28.2-.28.23-.31q.3-.43.58-.87l0,0,.06-.09.47-.75.25-.44.15-.26.11-.2q.26-.46.5-.93l.07-.14.13-.26.28-.56.23-.52.14-.32.08-.18q.23-.56.44-1.11v0l.09-.26c.11-.32.22-.63.32-.94l0-.14c.1-.33.18-.65.26-1C486.17,607.91,486.22,607.75,486.25,607.59Z"/><polygon class="cls-2" points="494.11 583.48 480.41 573.52 499.32 551.82 513.03 561.78 494.11 583.48"/><path class="cls-2" d="M577,458.12l13.7,10c-7.27-5.29-18.37-5.22-31.14,1.23l-13.7-10C558.6,452.9,569.7,452.83,577,458.12Z"/><g class="cls-18"><g class="cls-15"><path class="cls-2" d="M559.53,469.32l-13.7-10a55.64,55.64,0,0,1,5.67-2.49l13.7,10a55.64,55.64,0,0,0-5.67,2.49"/><path class="cls-2" d="M565.2,466.83l-13.7-10a44.76,44.76,0,0,1,4.8-1.49l13.7,10a44.76,44.76,0,0,0-4.8,1.49"/><path class="cls-2" d="M570,465.33l-13.7-10q1.81-.45,3.54-.71l13.7,10q-1.73.26-3.54.71"/><path class="cls-2" d="M573.54,464.63l-13.7-10q1.52-.23,3-.3l13.7,10q-1.46.08-3,.3"/><path class="cls-2" d="M576.52,464.32l-13.7-10q1.34-.07,2.63,0l13.7,10q-1.28-.05-2.63,0"/><path class="cls-2" d="M579.15,464.31l-13.7-10q1.21,0,2.37.21l13.7,10q-1.16-.16-2.37-.21"/><path class="cls-2" d="M581.53,464.51l-13.7-10q1.11.15,2.17.4l13.7,10q-1.06-.25-2.17-.4"/><path class="cls-2" d="M583.7,464.92,570,455a20.92,20.92,0,0,1,2,.59l13.7,10a20.92,20.92,0,0,0-2-.59"/><path class="cls-2" d="M585.72,465.51l-13.7-10a19.65,19.65,0,0,1,1.9.77l13.7,10a19.65,19.65,0,0,0-1.9-.77"/><path class="cls-2" d="M587.62,466.28l-13.7-10a18.83,18.83,0,0,1,1.79,1l13.7,10a18.83,18.83,0,0,0-1.79-1"/><path class="cls-2" d="M589.42,467.24l-13.7-10q.65.39,1.26.84l13.7,10q-.61-.44-1.26-.84"/></g></g><polygon class="cls-2" points="601.28 415.41 587.58 405.44 594.57 390.18 608.27 400.15 601.28 415.41"/><path class="cls-14" d="M608.27,400.15c29.53.93,47,24.05,45.53,60.31l-12.9,7.45c1.25-31.56-13.93-51.68-39.62-52.5Z"/><path class="cls-3" d="M612.46,400.45q1.31.14,2.59.34l.77.12c1,.18,2,.38,3,.62l.42.11c.86.22,1.71.46,2.55.72l.71.23c.94.31,1.86.65,2.76,1l.33.14c.8.34,1.59.7,2.36,1.08l.67.34c.85.44,1.69.9,2.51,1.4s1.85,1.18,2.73,1.82l-13.7-10q-1.32-1-2.73-1.82l0,0c-.8-.49-1.63-.94-2.47-1.38l-.67-.33-.77-.39c-.52-.25-1.06-.47-1.6-.7l-.32-.14c-.73-.3-1.46-.58-2.21-.84l-.55-.18-.71-.23q-1.26-.39-2.55-.72l-.42-.11-.16,0c-.93-.22-1.89-.41-2.85-.58l-.78-.13-1.09-.18c-.49-.07-1-.11-1.5-.17l-.71-.08c-1-.09-1.93-.16-2.92-.2l-.55,0,13.7,10c1.18,0,2.33.12,3.47.22Z"/><path class="cls-3" d="M453.22,640.33l-13.7-10c-3.44-2.5-5.37-7.1-5.12-13.47.58-14.67,12.59-33.27,26.78-41.46,7.84-4.52,14.73-4.93,19.22-1.92l13.7,10c-4.49-3-11.38-2.61-19.22,1.92-14.19,8.2-26.2,26.79-26.78,41.46C447.85,633.23,449.79,637.83,453.22,640.33Z"/><g class="cls-19"><g class="cls-15"><path class="cls-3" d="M453.22,640.33l-13.7-10c-3.44-2.5-5.37-7.1-5.12-13.47a33.83,33.83,0,0,1,.81-6l13.7,10a33.83,33.83,0,0,0-.81,6c-.25,6.37,1.69,11,5.12,13.47"/><path class="cls-3" d="M448.91,620.88l-13.7-10q.35-1.58.84-3.17l13.7,10q-.49,1.6-.84,3.17"/><path class="cls-3" d="M449.75,617.71l-13.7-10q.38-1.25.84-2.5l13.7,10q-.46,1.25-.84,2.5"/><path class="cls-3" d="M450.59,615.21l-13.7-10q.41-1.11.88-2.23l13.7,10q-.47,1.11-.88,2.23"/><path class="cls-3" d="M451.47,613l-13.7-10q.43-1,.9-2l13.7,10q-.48,1-.9,2"/><path class="cls-3" d="M452.37,610.95l-13.7-10q.45-1,.95-1.93l13.7,10q-.49,1-.95,1.93"/><path class="cls-3" d="M453.32,609l-13.7-10q.48-.93,1-1.86l13.7,10q-.52.92-1,1.86"/><path class="cls-3" d="M454.31,607.16l-13.7-10q.51-.91,1-1.8l13.7,10q-.54.9-1,1.8"/><path class="cls-3" d="M455.36,605.36l-13.7-10q.54-.89,1.1-1.76l13.7,10q-.57.87-1.1,1.76"/><path class="cls-3" d="M456.46,603.6l-13.7-10q.57-.88,1.17-1.74l13.7,10q-.6.86-1.17,1.74"/><path class="cls-3" d="M457.63,601.86l-13.7-10q.61-.88,1.25-1.74l13.7,10q-.64.86-1.25,1.74"/><path class="cls-3" d="M458.88,600.12l-13.7-10q.66-.89,1.35-1.75l13.7,10q-.69.86-1.35,1.75"/><path class="cls-3" d="M460.24,598.37l-13.7-10q.73-.91,1.48-1.78l13.7,10q-.76.88-1.48,1.78"/><path class="cls-3" d="M461.72,596.58l-13.7-10q.82-.95,1.67-1.86l13.7,10q-.85.91-1.67,1.86"/><path class="cls-3" d="M463.39,594.72l-13.7-10q1-1,2-2l13.7,10q-1,1-2,2"/><path class="cls-3" d="M465.38,592.7l-13.7-10q1.3-1.26,2.65-2.41l13.7,10q-1.35,1.15-2.65,2.41"/><path class="cls-3" d="M468,590.28l-13.7-10a46.44,46.44,0,0,1,6.86-4.88,33.48,33.48,0,0,1,5.09-2.42L480,583a33.48,33.48,0,0,0-5.09,2.42,46.44,46.44,0,0,0-6.86,4.88"/><path class="cls-3" d="M480,583l-13.7-10a25.36,25.36,0,0,1,2.7-.84l13.7,10a25.36,25.36,0,0,0-2.7.84"/><path class="cls-3" d="M482.67,582.14l-13.7-10q1-.26,2-.4l13.7,10q-1,.14-2,.4"/><path class="cls-3" d="M484.69,581.74l-13.7-10q.86-.13,1.69-.17l13.7,10q-.83,0-1.69.17"/><path class="cls-3" d="M486.38,581.57l-13.7-10q.76,0,1.49,0l13.7,10q-.73,0-1.49,0"/><path class="cls-3" d="M487.87,581.56l-13.7-10q.69,0,1.35.12l13.7,10q-.66-.09-1.35-.12"/><path class="cls-3" d="M489.22,581.68l-13.7-10q.64.09,1.24.23l13.7,10q-.6-.14-1.24-.23"/><path class="cls-3" d="M490.46,581.91l-13.7-10a11.94,11.94,0,0,1,1.15.34l13.7,10a11.94,11.94,0,0,0-1.15-.34"/><path class="cls-3" d="M491.62,582.25l-13.7-10a11.21,11.21,0,0,1,1.08.44l13.7,10a11.21,11.21,0,0,0-1.08-.44"/><path class="cls-3" d="M492.7,582.69l-13.7-10a10.74,10.74,0,0,1,1,.55l13.7,10a10.74,10.74,0,0,0-1-.55"/><path class="cls-3" d="M493.72,583.24l-13.7-10,.39.25,13.7,10-.39-.25"/></g></g><path class="cls-3" d="M509.24,543.92c0-.81.09-1.64.16-2.46,0-.28.06-.55.09-.83.06-.56.11-1.11.19-1.67,0-.33.1-.66.15-1,.08-.51.15-1,.24-1.55.06-.35.13-.71.2-1.07s.2-1,.3-1.5.16-.73.25-1.09.24-1,.37-1.53.19-.73.29-1.1.29-1,.44-1.55c.09-.32.19-.64.29-1q.59-1.9,1.28-3.82l.27-.74c.43-1.16.88-2.31,1.36-3.47l.05-.12c.43-1,.9-2.06,1.37-3.09l.41-.87q.59-1.25,1.22-2.49l.3-.6q.75-1.46,1.56-2.91l.42-.73q.61-1.08,1.26-2.16l.56-.92q.64-1.05,1.31-2.09l.48-.75q.91-1.39,1.86-2.76l.35-.5q.8-1.14,1.64-2.27l.62-.83q.82-1.09,1.66-2.15l.5-.63q1.13-1.4,2.3-2.77l.5-.57q1.13-1.3,2.3-2.56l.43-.47q1.49-1.58,3-3.09l.68-.66,1.39-1.31.82-.76c.54-.49,1.09-1,1.64-1.45l.61-.53,1.24-1,.89-.73c.43-.35.87-.68,1.31-1l.86-.66c.48-.36,1-.7,1.45-1.05l.74-.53q1.1-.77,2.22-1.49l-13.7-10q-1.12.72-2.22,1.5l-.7.5c-.5.36-1,.71-1.49,1.08l-.86.66c-.44.34-.87.67-1.31,1l-.9.74-1.23,1-.1.08-.51.45c-.55.48-1.1,1-1.64,1.45l-.81.75-1.4,1.32-.37.35-.3.3q-1.54,1.51-3,3.1l-.12.13-.31.34q-1.17,1.26-2.3,2.56l-.33.37-.17.21q-1.17,1.36-2.3,2.77l-.14.17-.36.46q-.85,1.07-1.67,2.15l-.34.44-.28.39q-.83,1.12-1.63,2.26l-.29.4-.07.11q-.95,1.36-1.85,2.75l-.14.2-.34.55q-.67,1-1.31,2.09l-.29.46-.27.46q-.64,1.08-1.25,2.16l-.32.54-.1.19q-.81,1.45-1.56,2.91l-.08.15-.22.45q-.63,1.24-1.22,2.49L503,506l-.18.41c-.48,1-.94,2.06-1.37,3.09l0,.1v0c-.48,1.16-.93,2.31-1.36,3.47l-.17.42-.11.32q-.69,1.91-1.28,3.82l-.09.26c-.07.23-.13.46-.2.69-.15.52-.3,1-.44,1.56-.1.36-.19.73-.29,1.09s-.25,1-.37,1.53c0,.2-.1.41-.15.62s-.06.32-.1.48c-.11.5-.21,1-.3,1.5s-.14.71-.2,1.07c-.09.52-.17,1-.24,1.54,0,.33-.1.66-.15,1-.07.56-.13,1.12-.19,1.67,0,.28-.06.56-.09.83-.07.83-.13,1.65-.16,2.46-.29,7.36,1.09,13.36,3.78,17.87l13.7,10C510.33,557.27,509,551.28,509.24,543.92Z"/><polygon class="cls-2" points="553.08 473.04 539.37 463.08 540.23 441.45 553.94 451.42 553.08 473.04"/><path class="cls-2" d="M547.94,437.27l-13.7-10c2.24,1.63,5.74,1.47,9.75-.84,7.07-4.08,13.06-13.36,13.35-20.67.13-3.18-.84-5.47-2.55-6.72l13.7,10c1.71,1.25,2.68,3.54,2.55,6.72-.29,7.31-6.28,16.59-13.35,20.67C553.68,438.74,550.17,438.9,547.94,437.27Z"/><g class="cls-20"><g class="cls-15"><path class="cls-2" d="M547.94,437.27l-13.7-10,.36.24,13.7,10-.36-.24"/><path class="cls-2" d="M548.3,437.51l-13.7-10a5.35,5.35,0,0,0,.51.27l13.7,10a5.35,5.35,0,0,1-.51-.27"/><path class="cls-2" d="M548.81,437.78l-13.7-10a5.58,5.58,0,0,0,.54.22l13.7,10a5.58,5.58,0,0,1-.54-.22"/><path class="cls-2" d="M549.35,438l-13.7-10a5.94,5.94,0,0,0,.58.17l13.7,10a5.94,5.94,0,0,1-.58-.17"/><path class="cls-2" d="M549.92,438.17l-13.7-10q.3.07.62.12l13.7,10q-.32,0-.62-.12"/><path class="cls-2" d="M550.54,438.29l-13.7-10q.33,0,.67.06l13.7,10q-.34,0-.67-.06"/><path class="cls-2" d="M551.21,438.35l-13.7-10q.36,0,.74,0l13.7,10q-.38,0-.74,0"/><path class="cls-2" d="M552,438.34l-13.7-10q.41,0,.84-.08l13.7,10q-.43.06-.84.08"/><path class="cls-2" d="M552.79,438.26l-13.7-10q.5-.07,1-.2l13.7,10q-.52.13-1,.2"/><path class="cls-2" d="M553.81,438.05l-13.7-10a12.69,12.69,0,0,0,1.36-.42l13.7,10a12.69,12.69,0,0,1-1.36.42"/><path class="cls-2" d="M555.17,437.63l-13.7-10a16.77,16.77,0,0,0,2.52-1.2A23.12,23.12,0,0,0,547.4,424l13.7,10a23.12,23.12,0,0,1-3.41,2.43,16.77,16.77,0,0,1-2.52,1.2"/><path class="cls-2" d="M561.1,434l-13.7-10q.67-.57,1.32-1.2l13.7,10q-.65.63-1.32,1.2"/><path class="cls-2" d="M562.42,432.79l-13.7-10q.51-.49,1-1l13.7,10q-.49.52-1,1"/><path class="cls-2" d="M563.41,431.78l-13.7-10q.42-.45.83-.93l13.7,10q-.41.47-.83.93"/><path class="cls-2" d="M564.25,430.86l-13.7-10q.38-.44.74-.89L565,430q-.36.45-.74.89"/><path class="cls-2" d="M565,430l-13.7-10q.35-.43.68-.87l13.7,10q-.33.44-.68.87"/><path class="cls-2" d="M565.66,429.09l-13.7-10q.32-.43.63-.87l13.7,10q-.31.44-.63.87"/><path class="cls-2" d="M566.29,428.22l-13.7-10q.3-.43.58-.87l13.7,10q-.28.44-.58.87"/><path class="cls-2" d="M566.87,427.35l-13.7-10q.28-.44.55-.88l13.7,10q-.27.44-.55.88"/><path class="cls-2" d="M567.42,426.48l-13.7-10q.27-.45.52-.9l13.7,10q-.25.45-.52.9"/><path class="cls-2" d="M567.94,425.58l-13.7-10q.26-.46.5-.93l13.7,10q-.24.46-.5.93"/><path class="cls-2" d="M568.44,424.65l-13.7-10q.25-.48.47-1l13.7,10q-.23.48-.47,1"/><path class="cls-2" d="M568.91,423.69l-13.7-10q.24-.51.45-1l13.7,10q-.21.51-.45,1"/><path class="cls-2" d="M569.36,422.68l-13.7-10q.23-.55.44-1.11l13.7,10q-.2.55-.44,1.11"/><path class="cls-2" d="M569.8,421.57l-13.7-10q.23-.62.42-1.25l13.7,10q-.19.62-.42,1.25"/><path class="cls-2" d="M570.22,420.32l-13.7-10q.24-.8.42-1.58l13.7,10q-.17.78-.42,1.58"/><path class="cls-2" d="M570.64,418.74l-13.7-10a16.84,16.84,0,0,0,.4-3c.13-3.18-.84-5.47-2.55-6.72l13.7,10c1.71,1.25,2.68,3.54,2.55,6.72a16.84,16.84,0,0,1-.4,3"/></g></g><path class="cls-14" d="M632.27,494.54c14.19-8.2,25.25-2.91,24.67,11.76s-12.59,33.28-26.78,41.48S604.9,550.68,605.49,536a40.08,40.08,0,0,1,3.06-13.13l-17.75-.36c-8.64,17.06-22.67,33.1-38.19,42.06s-28.9,8.74-36.56,1.09L497.44,587a18.3,18.3,0,0,1,2.13,10.13c-.58,14.68-12.6,33.29-26.78,41.48s-25.25,2.91-24.67-11.77,12.59-33.27,26.78-41.46c7.84-4.52,14.73-4.93,19.22-1.92L513,561.78c-2.69-4.51-4.08-10.51-3.78-17.87,1-24.66,20.34-55.62,43.83-70.87l.86-21.62c-12.6,5.67-22,.14-21.45-13.4.58-14.68,12.6-33.29,26.78-41.48s25.25-2.91,24.67,11.77c-.54,13.54-10.81,30.42-23.55,39.38l-.86,21.62c23.35-11.8,41.11-2.27,40.13,22.4a70.5,70.5,0,0,1-5.41,23.17l18,.36C617.26,506.78,624.43,499.06,632.27,494.54Zm-79.13,56.69c17.81-10.28,32.9-33.65,33.63-52.07s-13.17-25-31-14.76-32.9,33.63-33.63,52.07,13.17,25,31,14.76m77.55-16.8c7.08-4.09,13.07-13.36,13.36-20.69s-5.23-9.94-12.31-5.85-13.06,13.36-13.35,20.67,5.23,10,12.3,5.87M473.31,625.28c7.07-4.08,13.06-13.36,13.35-20.68s-5.23-9.94-12.3-5.86S461.3,612.1,461,619.42s5.23,10,12.31,5.87M545.4,430.56c-.29,7.31,5.23,9.94,12.3,5.86s13.06-13.36,13.35-20.67-5.23-10-12.3-5.87-13.06,13.36-13.35,20.68"/><path class="cls-3" d="M532.91,434.15c.11-.65.21-1.3.35-2,.08-.36.19-.73.28-1.1.16-.65.32-1.3.52-2s.46-1.45.71-2.18c.06-.17.11-.35.17-.52.32-.89.68-1.78,1.06-2.67l.28-.63q.49-1.09,1-2.18l.25-.51q.65-1.27,1.36-2.53l.31-.53c.47-.81,1-1.61,1.46-2.4l.11-.17c.53-.83,1.1-1.64,1.67-2.44l.4-.55c.59-.8,1.19-1.6,1.81-2.37l.19-.22c.56-.69,1.14-1.37,1.73-2l.62-.69c.47-.51.94-1,1.42-1.5l.8-.82c.36-.35.73-.69,1.09-1s1-.92,1.49-1.36c.66-.58,1.33-1.15,2-1.68l0,0c.75-.59,1.51-1.13,2.28-1.66l.57-.39c.77-.52,1.55-1,2.34-1.47s1.57-.86,2.34-1.23l.36-.18c.73-.34,1.45-.65,2.16-.92l.38-.14q1.22-.44,2.39-.74l.39-.1c.6-.14,1.18-.26,1.76-.35h.05c.52-.08,1-.12,1.52-.15l.46,0H572l.49,0,.8.07.46.05c.26,0,.52.09.78.14l.4.08c.3.07.59.16.88.26l.22.07q.53.19,1,.42l.26.14c.24.12.48.25.71.38s.54.33.79.52l-13.7-10q-.35-.25-.72-.48l-.07,0c-.23-.14-.47-.26-.72-.39l-.23-.12h0q-.5-.23-1-.42h0l-.2-.06c-.29-.09-.58-.18-.88-.26l-.07,0-.32-.06c-.26-.05-.51-.11-.78-.14l-.14,0-.32,0-.8-.07-.22,0h-1.49l-.16,0c-.5,0-1,.08-1.52.15h-.05c-.57.09-1.16.21-1.76.35l-.23,0-.16,0q-1.17.3-2.39.74l-.18.06-.19.08c-.71.27-1.43.57-2.16.92l-.36.18c-.77.37-1.55.78-2.34,1.23s-1.57,1-2.34,1.47l-.58.39c-.77.53-1.53,1.08-2.27,1.66l0,0q-.82.64-1.62,1.32l-.39.36c-.51.44-1,.9-1.5,1.36-.25.24-.51.45-.76.69l-.32.33-.81.82c-.29.29-.58.58-.86.88l-.56.62-.62.69-.49.54c-.42.49-.83,1-1.24,1.5l-.19.22-.05.06q-.69.86-1.35,1.75l-.4.55-.4.55-.46.63q-.6.86-1.17,1.74l0,.06L527,405c-.32.5-.64,1-1,1.52-.18.29-.34.58-.51.88l-.31.53-.23.4q-.52.92-1,1.86l-.13.27-.25.51c-.19.38-.38.76-.56,1.14s-.31.69-.46,1l-.28.63-.16.36q-.47,1.11-.88,2.23l0,.08c-.06.17-.11.35-.18.52-.22.64-.45,1.27-.64,1.91,0,.09,0,.18-.07.27-.2.66-.36,1.31-.52,2-.08.31-.18.63-.25.94,0,.05,0,.1,0,.15-.14.66-.25,1.32-.35,2-.05.33-.13.66-.17,1-.13,1-.22,1.93-.26,2.88-.25,6.36,1.68,11,5.11,13.45l13.7,10c-3.43-2.49-5.37-7.09-5.11-13.45,0-.94.13-1.91.26-2.88C532.78,434.81,532.86,434.48,532.91,434.15Z"/><path class="cls-14" d="M455.11,575.17C456.6,537.79,477.63,492,510,455.58l5.78,8.07c-28.17,31.67-46.47,71.54-47.76,104.07Z"/><path class="cls-3" d="M455.53,569q.23-2.5.57-5c0-.29.09-.58.13-.87q.33-2.35.75-4.73c0-.28.09-.55.14-.83q.48-2.59,1.06-5.22l.26-1.16c.41-1.77.83-3.55,1.31-5.34v0c.47-1.78,1-3.58,1.54-5.38l.39-1.3q.51-1.65,1.06-3.31c.12-.38.24-.75.37-1.13q.75-2.21,1.55-4.42c.16-.43.33-.87.49-1.3.35-.93.7-1.87,1.07-2.81.21-.53.42-1.06.64-1.59.34-.85.68-1.69,1-2.54.26-.61.52-1.23.78-1.84s.58-1.35.87-2,.56-1.26.85-1.89.61-1.35.92-2l.6-1.28q1.54-3.28,3.21-6.54l.48-.92q1.65-3.19,3.41-6.36l.38-.66q1.79-3.18,3.68-6.34l.09-.16c1.25-2.06,2.54-4.12,3.85-6.16l.54-.85q1.91-2.93,3.91-5.82l.71-1q2-2.91,4.16-5.78l.69-.92q2.25-3,4.59-5.94l.56-.7q2.54-3.16,5.19-6.24,1.29-1.5,2.6-3l-13.7-10q-1.22,1.37-2.42,2.77l-.18.21q-2.65,3.08-5.19,6.24l-.36.43-.21.27q-2.34,2.94-4.59,5.93l-.4.52-.29.41q-2.13,2.86-4.16,5.77l-.34.48-.37.55q-2,2.89-3.91,5.82l-.2.3-.34.55c-1.32,2-2.61,4.09-3.85,6.16l0,0-.07.12q-1.9,3.15-3.68,6.33l-.27.46-.11.21q-1.77,3.17-3.41,6.36l-.3.56-.18.36q-1.67,3.26-3.21,6.54l-.27.54-.34.74c-.31.67-.61,1.33-.91,2s-.58,1.28-.86,1.91-.58,1.33-.86,2c-.18.41-.36.82-.53,1.24l-.25.63c-.35.84-.69,1.68-1,2.52-.21.54-.43,1.07-.64,1.61-.36.93-.71,1.86-1.06,2.79-.14.37-.29.75-.43,1.12l-.07.19q-.81,2.22-1.55,4.42c-.13.37-.24.74-.36,1.11q-.55,1.67-1.07,3.33c-.07.21-.14.43-.21.64s-.12.44-.19.66c-.54,1.8-1.06,3.59-1.53,5.37v0c-.48,1.79-.9,3.57-1.31,5.34,0,.21-.11.43-.16.65s-.07.34-.1.51c-.39,1.75-.74,3.49-1.06,5.22-.05.27-.09.54-.14.82q-.42,2.39-.76,4.74c0,.29-.09.58-.13.86q-.34,2.54-.57,5c0,.36-.06.72-.09,1.08-.14,1.71-.26,3.41-.33,5.08l13.7,10c.07-1.67.19-3.37.33-5.08C455.47,569.74,455.5,569.37,455.53,569Z"/></svg>