<svg id="图层_1" data-name="图层 1" xmlns="http://www.w3.org/2000/svg" xmlns:xlink="http://www.w3.org/1999/xlink" viewBox="0 0 1024 1024"><defs><style>.cls-1{fill:#8bbdea;}.cls-2{fill:#fff;}.cls-3{fill:url(#未命名的渐变_7);}.cls-4{fill:#b6dcff;}.cls-5{fill:#0083ef;}.cls-6{fill:url(#未命名的渐变_185);}.cls-7{fill:#047cf8;}.cls-8{fill:url(#未命名的渐变_203);}.cls-9{fill:#3b9ffd;}.cls-10{fill:url(#未命名的渐变_137);}.cls-11{fill:url(#未命名的渐变_137-2);}.cls-12{fill:url(#未命名的渐变_26);}.cls-13{fill:url(#未命名的渐变_200);}.cls-14{fill:#0f82f8;opacity:0.32;}.cls-15{clip-path:url(#clip-path);}.cls-16{isolation:isolate;}.cls-17{clip-path:url(#clip-path-2);}.cls-18{clip-path:url(#clip-path-3);}.cls-19{clip-path:url(#clip-path-4);}.cls-20{clip-path:url(#clip-path-5);}.cls-21{fill:url(#未命名的渐变_7-2);}.cls-22{clip-path:url(#clip-path-6);}.cls-23{clip-path:url(#clip-path-7);}.cls-24{clip-path:url(#clip-path-8);}.cls-25{clip-path:url(#clip-path-9);}.cls-26{clip-path:url(#clip-path-10);}.cls-27{fill:url(#未命名的渐变_7-3);}.cls-28{clip-path:url(#clip-path-11);}.cls-29{clip-path:url(#clip-path-12);}.cls-30{fill:url(#未命名的渐变_7-5);}.cls-31{fill:url(#未命名的渐变_7-6);}.cls-32{fill:url(#未命名的渐变_7-7);}.cls-33{fill:url(#未命名的渐变_7-8);}.cls-34{fill:url(#未命名的渐变_7-9);}.cls-35{fill:url(#未命名的渐变_7-10);}.cls-36{fill:url(#未命名的渐变_7-11);}.cls-37{fill:url(#未命名的渐变_7-12);}.cls-38{fill:url(#未命名的渐变_7-13);}.cls-39{fill:url(#未命名的渐变_7-14);}.cls-40{fill:url(#未命名的渐变_7-15);}.cls-41{fill:url(#未命名的渐变_7-16);}.cls-42{fill:url(#未命名的渐变_7-17);}.cls-43{fill:url(#未命名的渐变_7-18);}.cls-44{fill:url(#未命名的渐变_7-19);}.cls-45{fill:url(#未命名的渐变_7-20);}.cls-46{fill:url(#未命名的渐变_7-21);}.cls-47{clip-path:url(#clip-path-13);}.cls-48{clip-path:url(#clip-path-14);}</style><linearGradient id="未命名的渐变_7" x1="427.13" y1="418.59" x2="396.82" y2="451.13" gradientUnits="userSpaceOnUse"><stop offset="0" stop-color="#b6dcff"/><stop offset="1" stop-color="#8bbdea"/></linearGradient><linearGradient id="未命名的渐变_185" x1="367.75" y1="398.14" x2="341.52" y2="460.1" gradientUnits="userSpaceOnUse"><stop offset="0" stop-color="#45a3fd"/><stop offset="0.52" stop-color="#0089ff"/><stop offset="1" stop-color="#0079f7"/></linearGradient><linearGradient id="未命名的渐变_203" x1="343.61" y1="684.68" x2="343.61" y2="725.72" gradientUnits="userSpaceOnUse"><stop offset="0.01" stop-color="#047cf8"/><stop offset="1" stop-color="#0070f3"/></linearGradient><linearGradient id="未命名的渐变_137" x1="1504.02" y1="3915.31" x2="1517.23" y2="3947.38" gradientTransform="translate(0 -6104.82) scale(1 3.54)" gradientUnits="userSpaceOnUse"><stop offset="0.01" stop-color="#51a6f9"/><stop offset="1" stop-color="#0070f3"/></linearGradient><linearGradient id="未命名的渐变_137-2" x1="42.23" y1="7.23" x2="2206.59" y2="894.26" gradientTransform="matrix(1, 0, 0, 1, 0, 0)" xlink:href="#未命名的渐变_137"/><linearGradient id="未命名的渐变_26" x1="377.47" y1="408.45" x2="621.25" y2="552.73" gradientUnits="userSpaceOnUse"><stop offset="0" stop-color="#0089ff"/><stop offset="1" stop-color="#0070f3"/></linearGradient><linearGradient id="未命名的渐变_200" x1="640.66" y1="227.27" x2="623.57" y2="267.64" gradientUnits="userSpaceOnUse"><stop offset="0" stop-color="#0070f3"/><stop offset="1" stop-color="#3b9ffd"/></linearGradient><clipPath id="clip-path"><path class="cls-1" d="M604.69,505.4l-4.84-3.52a2.25,2.25,0,0,0,1-1.58l4.84,3.52A2.25,2.25,0,0,1,604.69,505.4Z"/></clipPath><clipPath id="clip-path-2"><path class="cls-2" d="M602.82,445.72l4.84,3.52a.57.57,0,0,1,.2.51L603,446.22A.57.57,0,0,0,602.82,445.72Z"/></clipPath><clipPath id="clip-path-3"><path class="cls-2" d="M520.19,553.81l-4.84-3.52a.68.68,0,0,0,.74,0l4.84,3.52A.68.68,0,0,1,520.19,553.81Z"/></clipPath><clipPath id="clip-path-4"><path class="cls-2" d="M615,428.95l4.84,3.52c-2.82-2.05-7.26-1.85-12.32,1.07L602.71,430C607.77,427.09,612.2,426.89,615,428.95Z"/></clipPath><clipPath id="clip-path-5"><path class="cls-1" d="M508,570.58l-4.84-3.52c-2.16-1.57-3.38-4.47-3.23-8.48l4.84,3.52C504.6,566.11,505.82,569,508,570.58Z"/></clipPath><linearGradient id="未命名的渐变_7-2" x1="523.01" y1="470.93" x2="506.51" y2="503.46" xlink:href="#未命名的渐变_7"/><clipPath id="clip-path-6"><path class="cls-4" d="M438,603.6l-4.84-3.52c3.17,2.3,8.14,2.08,13.82-1.2l4.84,3.52C446.15,605.68,441.18,605.9,438,603.6Z"/></clipPath><clipPath id="clip-path-7"><path class="cls-1" d="M425.8,620.35,421,616.84c-4.46-3.24-7-9.22-6.65-17.48l4.84,3.52C418.83,611.14,421.34,617.11,425.8,620.35Z"/></clipPath><clipPath id="clip-path-8"><path class="cls-1" d="M505.19,446.45l-4.84-3.52a2.26,2.26,0,0,0,1-1.59l4.84,3.52A2.26,2.26,0,0,1,505.19,446.45Z"/></clipPath><clipPath id="clip-path-9"><path class="cls-2" d="M503.33,386.77l4.84,3.52a.56.56,0,0,1,.2.5l-4.84-3.52A.56.56,0,0,0,503.33,386.77Z"/></clipPath><clipPath id="clip-path-10"><path class="cls-2" d="M420.69,494.86l-4.84-3.52a.68.68,0,0,0,.74,0l4.84,3.52A.68.68,0,0,1,420.69,494.86Z"/></clipPath><linearGradient id="未命名的渐变_7-3" x1="503.21" y1="371.61" x2="520.36" y2="371.61" xlink:href="#未命名的渐变_7"/><clipPath id="clip-path-11"><path class="cls-1" d="M408.49,511.63l-4.84-3.52c-2.16-1.57-3.38-4.47-3.22-8.48l4.84,3.52C405.1,507.16,406.32,510.06,408.49,511.63Z"/></clipPath><clipPath id="clip-path-12"><path class="cls-3" d="M407.41,449.07l-4.84-3.52c.37-9.25,7.94-21,16.88-26.13l4.84,3.52C415.35,428.1,407.78,439.83,407.41,449.07Z"/></clipPath><linearGradient id="未命名的渐变_7-5" x1="428.8" y1="420.15" x2="398.49" y2="452.68" xlink:href="#未命名的渐变_7"/><linearGradient id="未命名的渐变_7-6" x1="427.63" y1="419.06" x2="397.33" y2="451.6" xlink:href="#未命名的渐变_7"/><linearGradient id="未命名的渐变_7-7" x1="427.03" y1="418.5" x2="396.72" y2="451.03" xlink:href="#未命名的渐变_7"/><linearGradient id="未命名的渐变_7-8" x1="426.57" y1="418.07" x2="396.27" y2="450.61" xlink:href="#未命名的渐变_7"/><linearGradient id="未命名的渐变_7-9" x1="426.2" y1="417.73" x2="395.9" y2="450.27" xlink:href="#未命名的渐变_7"/><linearGradient id="未命名的渐变_7-10" x1="425.89" y1="417.44" x2="395.58" y2="449.98" xlink:href="#未命名的渐变_7"/><linearGradient id="未命名的渐变_7-11" x1="425.63" y1="417.19" x2="395.32" y2="449.73" xlink:href="#未命名的渐变_7"/><linearGradient id="未命名的渐变_7-12" x1="425.4" y1="416.98" x2="395.09" y2="449.51" xlink:href="#未命名的渐变_7"/><linearGradient id="未命名的渐变_7-13" x1="425.2" y1="416.79" x2="394.89" y2="449.33" xlink:href="#未命名的渐变_7"/><linearGradient id="未命名的渐变_7-14" x1="425.03" y1="416.64" x2="394.72" y2="449.17" xlink:href="#未命名的渐变_7"/><linearGradient id="未命名的渐变_7-15" x1="424.89" y1="416.51" x2="394.58" y2="449.05" xlink:href="#未命名的渐变_7"/><linearGradient id="未命名的渐变_7-16" x1="424.78" y1="416.41" x2="394.48" y2="448.94" xlink:href="#未命名的渐变_7"/><linearGradient id="未命名的渐变_7-17" x1="424.71" y1="416.34" x2="394.4" y2="448.87" xlink:href="#未命名的渐变_7"/><linearGradient id="未命名的渐变_7-18" x1="424.67" y1="416.3" x2="394.36" y2="448.84" xlink:href="#未命名的渐变_7"/><linearGradient id="未命名的渐变_7-19" x1="424.67" y1="416.3" x2="394.37" y2="448.84" xlink:href="#未命名的渐变_7"/><linearGradient id="未命名的渐变_7-20" x1="424.76" y1="416.38" x2="394.45" y2="448.92" xlink:href="#未命名的渐变_7"/><linearGradient id="未命名的渐变_7-21" x1="425.21" y1="416.81" x2="394.91" y2="449.35" xlink:href="#未命名的渐变_7"/><clipPath id="clip-path-13"><path class="cls-1" d="M586.31,365.29l4.84,3.52c2.43,1.77,3.8,5,3.62,9.51l-4.84-3.52C590.11,370.31,588.74,367.06,586.31,365.29Z"/></clipPath><clipPath id="clip-path-14"><path class="cls-4" d="M598.51,348.53l4.84,3.52c-5.83-4.24-15-3.82-25.4,2.21l-4.84-3.52C583.55,344.71,592.69,344.3,598.51,348.53Z"/></clipPath></defs><title>远端复制2.5D</title><path class="cls-5" d="M390.05,412.28l-30.49-17.6-19.13,11.38c-5.47,3.25-9.95,10.39-9.95,15.86v29.21l27.85,16.08Z"/><path class="cls-6" d="M390.05,412.28l-30.49-17.6-19.13,11.38c-5.47,3.25-9.95,10.39-9.95,15.86v29.21l27.85,16.08Z"/><path class="cls-7" d="M353.29,689.13V464.3l-22.8-13.16v267c0,.35.07-38.55.1-38.23h0Z"/><path class="cls-5" d="M340.44,722.2l12.86-7.65V689.13l-22.7-9.19v39.19C331.12,723.81,335.31,725.25,340.44,722.2Z"/><path class="cls-8" d="M353.29,729.88V689.13l-22.7-9.19s-.46,35.4,0,39.19,3,4.35,3,4.35l23.26,12.14v-.31C354.68,734.75,353.29,732.9,353.29,729.88Z"/><path class="cls-5" d="M356.82,690.56v21.89L636.68,545.92c5.47-3.25,9.95-10.39,9.95-15.86V249.14l-265.5,158,8.93,5.15-31.72,54.93-5-2.91V689.13Z"/><polygon class="cls-5" points="353.29 689.13 353.29 714.55 356.82 712.45 356.82 690.56 353.29 689.13"/><polygon class="cls-9" points="359.56 394.68 381.12 407.13 618.88 265.65 598.2 252.68 359.56 394.68"/><polygon class="cls-10" points="618.88 265.65 618.88 265.65 646.63 249.14 618.88 265.65"/><path class="cls-11" d="M666.78,240.4c-1.82-.9-4.41-.63-7.3,1.09l-12.86,7.65-27.75,16.51,3.28,2.05Z"/><path class="cls-12" d="M666.78,240.4c-1.82-.9-4.41-.63-7.3,1.09l-12.86,7.65-27.75,16.51L381.12,407.13l-17.89,10.64c-5.47,3.25-9.95,10.39-9.95,15.86V729.88c0,3,1.39,4.87,3.53,5.43,1.74.45,4,.06,6.42-1.4L659.48,557.63c5.47-3.25,9.95-10.39,9.95-15.86V245.52C669.43,242.94,668.41,241.21,666.78,240.4Z"/><path class="cls-5" d="M646.63,233.81c0-5.47-4.48-7.28-9.95-4l-38.48,22.9,20.68,13,27.75-16.51Z"/><path class="cls-13" d="M644.25,228.8l-.06,0c-1.83-1-4.5-.83-7.51,1l-38.48,22.9,20.68,13,27.75-16.51,12.86-7.65c2.89-1.72,5.48-2,7.3-1.09l0,0Z"/><polygon class="cls-14" points="328.74 785 374.19 811.95 677.92 630.73 632.64 603.68 328.74 785"/><polygon class="cls-1" points="517.84 596.43 513 592.91 513.63 590.63 518.47 594.15 517.84 596.43"/><polygon class="cls-4" points="518.47 594.15 513.63 590.63 600.25 540.62 605.08 544.14 518.47 594.15"/><polygon class="cls-2" points="605.08 544.14 604.46 546.42 517.84 596.43 518.47 594.15 605.08 544.14"/><path class="cls-1" d="M604.69,505.4l-4.84-3.52a2.25,2.25,0,0,0,1-1.58l4.84,3.52A2.25,2.25,0,0,1,604.69,505.4Z"/><g class="cls-15"><g class="cls-16"><path class="cls-1" d="M604.69,505.4l-4.84-3.52a1.63,1.63,0,0,0,.24-.17l4.84,3.52a1.63,1.63,0,0,1-.24.17"/><path class="cls-1" d="M604.93,505.23l-4.84-3.52.1-.09,4.84,3.52-.1.09"/><path class="cls-1" d="M605,505.14l-4.84-3.52.08-.08,4.84,3.52-.08.08"/><path class="cls-1" d="M605.1,505.06l-4.84-3.52.07-.07,4.84,3.52-.07.07"/><path class="cls-1" d="M605.17,505l-4.84-3.52.06-.07,4.84,3.52-.06.07"/><path class="cls-1" d="M605.23,504.92l-4.84-3.52.05-.07,4.84,3.52-.05.07"/><path class="cls-1" d="M605.28,504.85l-4.84-3.52.05-.07,4.84,3.52-.05.07"/><path class="cls-1" d="M605.33,504.78l-4.84-3.52,0-.07,4.84,3.52,0,.07"/><path class="cls-1" d="M605.38,504.7l-4.84-3.52,0-.07,4.84,3.52,0,.07"/><path class="cls-1" d="M605.43,504.63l-4.84-3.52,0-.07,4.84,3.52,0,.07"/><path class="cls-1" d="M605.47,504.56,600.63,501l0-.07,4.84,3.52,0,.07"/><path class="cls-1" d="M605.51,504.49,600.67,501l0-.08,4.84,3.52,0,.08"/><path class="cls-1" d="M605.55,504.41l-4.84-3.52,0-.08,4.84,3.52,0,.08"/><path class="cls-1" d="M605.58,504.33l-4.84-3.52,0-.09,4.84,3.52,0,.09"/><path class="cls-1" d="M605.62,504.24l-4.84-3.52,0-.1,4.84,3.52,0,.1"/><path class="cls-1" d="M605.65,504.14l-4.84-3.52,0-.12,4.84,3.52,0,.12"/><path class="cls-1" d="M605.68,504l-4.84-3.52a1.2,1.2,0,0,0,0-.21l4.84,3.52a1.2,1.2,0,0,1,0,.21"/></g></g><polygon class="cls-1" points="605.71 503.82 600.87 500.3 603.02 446.22 607.86 449.74 605.71 503.82"/><g class="cls-16"><path class="cls-2" d="M602.82,445.72l4.84,3.52a.57.57,0,0,1,.2.51L603,446.22A.57.57,0,0,0,602.82,445.72Z"/><g class="cls-17"><g class="cls-16"><path class="cls-2" d="M607.86,449.74,603,446.22a.57.57,0,0,0-.2-.51l4.84,3.52a.57.57,0,0,1,.2.51"/></g></g></g><polygon class="cls-4" points="520.93 553.76 516.09 550.24 599.86 501.88 604.69 505.4 520.93 553.76"/><g class="cls-16"><path class="cls-2" d="M520.19,553.81l-4.84-3.52a.68.68,0,0,0,.74,0l4.84,3.52A.68.68,0,0,1,520.19,553.81Z"/><g class="cls-18"><g class="cls-16"><path class="cls-2" d="M520.19,553.81l-4.84-3.52,0,0,4.84,3.52,0,0"/><path class="cls-2" d="M520.22,553.83l-4.84-3.52,0,0,4.84,3.52,0,0"/><path class="cls-2" d="M520.26,553.85l-4.84-3.52,0,0,4.84,3.52,0,0"/><path class="cls-2" d="M520.3,553.87l-4.84-3.52h0l4.84,3.52h0"/><path class="cls-2" d="M520.35,553.88l-4.84-3.52h0l4.84,3.52h0"/><path class="cls-2" d="M520.4,553.89l-4.84-3.52h.05l4.84,3.52h-.05"/><path class="cls-2" d="M520.45,553.9l-4.84-3.52h.06l4.84,3.52h-.06"/><path class="cls-2" d="M520.51,553.89l-4.84-3.52h.07l4.84,3.52h-.07"/><path class="cls-2" d="M520.58,553.89l-4.84-3.52.08,0,4.84,3.52-.08,0"/><path class="cls-2" d="M520.65,553.87l-4.84-3.52.1,0,4.84,3.52-.1,0"/><path class="cls-2" d="M520.75,553.84l-4.84-3.52.18-.08,4.84,3.52-.18.08"/></g></g></g><g class="cls-16"><path class="cls-2" d="M615,428.95l4.84,3.52c-2.82-2.05-7.26-1.85-12.32,1.07L602.71,430C607.77,427.09,612.2,426.89,615,428.95Z"/><g class="cls-19"><g class="cls-16"><path class="cls-2" d="M607.54,433.53,602.71,430a21.21,21.21,0,0,1,3.18-1.52l4.84,3.52a21.21,21.21,0,0,0-3.18,1.52"/><path class="cls-2" d="M610.73,432l-4.84-3.52a16,16,0,0,1,1.72-.54l4.84,3.52a16,16,0,0,0-1.72.54"/><path class="cls-2" d="M612.45,431.48,607.61,428q.65-.16,1.28-.25l4.84,3.52q-.63.09-1.28.25"/><path class="cls-2" d="M613.73,431.22l-4.84-3.52q.54-.08,1.06-.11l4.84,3.52q-.52,0-1.06.11"/><path class="cls-2" d="M614.79,431.12,610,427.6q.48,0,.94,0l4.84,3.52q-.46,0-.94,0"/><path class="cls-2" d="M615.73,431.11l-4.84-3.52q.43,0,.85.07l4.84,3.52q-.41-.06-.85-.07"/><path class="cls-2" d="M616.58,431.18l-4.84-3.52q.4.05.78.15l4.84,3.52q-.38-.09-.78-.15"/><path class="cls-2" d="M617.36,431.33l-4.84-3.52a7.5,7.5,0,0,1,.73.21l4.84,3.52a7.5,7.5,0,0,0-.73-.21"/><path class="cls-2" d="M618.09,431.54,613.25,428a7,7,0,0,1,.68.28l4.84,3.52a7,7,0,0,0-.68-.28"/><path class="cls-2" d="M618.77,431.82l-4.84-3.52a6.75,6.75,0,0,1,.64.35l4.84,3.52a6.75,6.75,0,0,0-.64-.35"/><path class="cls-2" d="M619.41,432.16l-4.84-3.52.45.3,4.84,3.52-.45-.3"/></g></g></g><path class="cls-1" d="M508,570.58l-4.84-3.52c-2.16-1.57-3.38-4.47-3.23-8.48l4.84,3.52C504.6,566.11,505.82,569,508,570.58Z"/><g class="cls-20"><g class="cls-16"><path class="cls-1" d="M508,570.58l-4.84-3.52c-2.16-1.57-3.38-4.47-3.23-8.48l4.84,3.52c-.16,4,1.06,6.91,3.23,8.48"/></g></g><polygon class="cls-1" points="504.76 562.1 499.92 558.58 502.07 504.51 506.9 508.02 504.76 562.1"/><polygon class="cls-4" points="523.78 481.89 518.95 478.38 602.71 430.02 607.54 433.53 523.78 481.89"/><path class="cls-2" d="M607.54,433.53c8.94-5.16,15.91-1.84,15.54,7.41L620.94,495c-.37,9.25-7.94,21-16.88,26.13L520.3,569.51c-8.94,5.16-15.91,1.84-15.54-7.41L506.91,508c.37-9.25,7.94-21,16.88-26.13Zm-1.83,70.28,2.15-54.08c0-.54-.42-.76-.94-.46l-83.76,48.36a2.26,2.26,0,0,0-1,1.59L520,553.31c0,.54.42.75.94.45l83.76-48.36a2.25,2.25,0,0,0,1-1.58"/><path class="cls-21" d="M507.17,505.59c.07-.41.13-.82.22-1.24,0-.23.12-.46.17-.69.1-.41.2-.82.33-1.24s.29-.91.45-1.37l.11-.33c.2-.56.43-1.12.67-1.68l.18-.4q.31-.69.64-1.38l.16-.32q.41-.8.86-1.59l.19-.33c.3-.51.6-1,.92-1.51l.07-.11c.34-.52.69-1,1.05-1.54l.25-.35c.37-.51.75-1,1.14-1.49l.12-.14c.35-.44.72-.86,1.09-1.28l.39-.44c.29-.32.59-.63.9-.94l.51-.52.68-.64c.31-.29.62-.58.94-.86s.84-.73,1.27-1.06h0c.47-.37,1-.71,1.43-1l.36-.25c.49-.33,1-.64,1.48-.93l-4.84-3.52c-.5.29-1,.6-1.48.93l-.36.25c-.48.33-1,.68-1.43,1l0,0q-.52.41-1,.84l-.25.22c-.32.28-.63.57-.94.86L513,483l-.2.21-.51.52-.54.55-.35.39-.39.44-.31.34c-.27.31-.53.62-.78.94l-.12.14,0,0q-.44.54-.85,1.1l-.25.35-.25.35-.29.4q-.38.54-.74,1.1l0,0-.07.11c-.2.32-.41.64-.6,1l-.32.55-.19.33-.15.25q-.32.58-.63,1.17l-.09.17-.16.32c-.12.24-.24.48-.35.72s-.19.44-.29.66l-.18.4-.1.23q-.29.7-.55,1.4l0,0-.11.33c-.14.4-.28.8-.4,1.2l0,.17c-.12.41-.22.82-.33,1.23,0,.2-.11.4-.16.6l0,.1c-.09.42-.16.83-.22,1.24,0,.21-.08.42-.11.62-.08.61-.14,1.22-.16,1.81l4.84,3.52c0-.6.08-1.2.16-1.81C507.09,506,507.14,505.8,507.17,505.59Z"/><polygon class="cls-4" points="451.83 602.39 446.99 598.88 479.52 580.1 484.36 583.61 451.83 602.39"/><g class="cls-16"><path class="cls-4" d="M438,603.6l-4.84-3.52c3.17,2.3,8.14,2.08,13.82-1.2l4.84,3.52C446.15,605.68,441.18,605.9,438,603.6Z"/><g class="cls-22"><g class="cls-16"><path class="cls-4" d="M438,603.6l-4.84-3.52.51.34,4.84,3.52-.51-.34"/><path class="cls-4" d="M438.51,603.93l-4.84-3.52a7.57,7.57,0,0,0,.72.39l4.84,3.52a7.57,7.57,0,0,1-.72-.39"/><path class="cls-4" d="M439.23,604.32l-4.84-3.52a7.9,7.9,0,0,0,.76.31l4.84,3.52a7.9,7.9,0,0,1-.76-.31"/><path class="cls-4" d="M440,604.63l-4.84-3.52a8.41,8.41,0,0,0,.82.24l4.84,3.52a8.41,8.41,0,0,1-.82-.24"/><path class="cls-4" d="M440.81,604.87,436,601.35q.43.1.88.16l4.84,3.52q-.45-.06-.88-.16"/><path class="cls-4" d="M441.69,605l-4.84-3.52q.46.06,1,.08l4.84,3.52q-.49,0-1-.08"/><path class="cls-4" d="M442.64,605.12l-4.84-3.52q.51,0,1,0l4.84,3.52q-.54,0-1,0"/><path class="cls-4" d="M443.69,605.11l-4.84-3.52q.58,0,1.19-.12l4.84,3.52q-.61.09-1.19.12"/><path class="cls-4" d="M444.89,605l-4.84-3.52q.7-.1,1.44-.29l4.84,3.52q-.73.18-1.44.29"/><path class="cls-4" d="M446.32,604.7l-4.84-3.52a18,18,0,0,0,1.93-.6l4.84,3.52a18,18,0,0,1-1.93.6"/><path class="cls-4" d="M448.25,604.1l-4.84-3.52a23.81,23.81,0,0,0,3.57-1.7l4.84,3.52a23.81,23.81,0,0,1-3.57,1.7"/></g></g></g><g class="cls-16"><path class="cls-1" d="M425.8,620.35,421,616.84c-4.46-3.24-7-9.22-6.65-17.48l4.84,3.52C418.83,611.14,421.34,617.11,425.8,620.35Z"/><g class="cls-23"><g class="cls-16"><path class="cls-1" d="M425.8,620.35,421,616.84c-4.46-3.24-7-9.22-6.65-17.48l4.84,3.52c-.33,8.27,2.19,14.24,6.65,17.48"/></g></g></g><polygon class="cls-1" points="419.15 602.87 414.32 599.35 416 557.03 420.84 560.54 419.15 602.87"/><polygon class="cls-4" points="420.84 560.54 416 557.03 431.23 548.24 436.07 551.75 420.84 560.54"/><path class="cls-2" d="M436.07,551.75l-1.68,42.33c-.41,10.38,7.41,14.11,17.44,8.32l32.53-18.78-.63,15.75L451.2,618.15c-18.43,10.64-32.8,3.78-32-15.28l1.68-42.33Z"/><polygon class="cls-1" points="418.34 537.47 413.51 533.96 414.13 531.68 418.97 535.2 418.34 537.47"/><polygon class="cls-4" points="418.97 535.2 414.13 531.68 500.75 481.68 505.58 485.19 418.97 535.2"/><polygon class="cls-2" points="505.58 485.19 504.96 487.47 418.34 537.47 418.97 535.2 505.58 485.19"/><g class="cls-16"><path class="cls-1" d="M505.19,446.45l-4.84-3.52a2.26,2.26,0,0,0,1-1.59l4.84,3.52A2.26,2.26,0,0,1,505.19,446.45Z"/><g class="cls-24"><g class="cls-16"><path class="cls-1" d="M505.19,446.45l-4.84-3.52a1.64,1.64,0,0,0,.24-.17l4.84,3.52a1.64,1.64,0,0,1-.24.17"/><path class="cls-1" d="M505.44,446.28l-4.84-3.52.1-.09,4.84,3.52-.1.09"/><path class="cls-1" d="M505.53,446.19l-4.84-3.52.08-.08,4.84,3.52-.08.08"/><path class="cls-1" d="M505.61,446.11l-4.84-3.52.07-.07,4.84,3.52-.07.07"/><path class="cls-1" d="M505.68,446l-4.84-3.52.06-.07,4.84,3.52-.06.07"/><path class="cls-1" d="M505.74,446l-4.84-3.52.05-.07,4.84,3.52-.05.07"/><path class="cls-1" d="M505.79,445.89,501,442.38l.05-.07,4.84,3.52-.05.07"/><path class="cls-1" d="M505.84,445.82,501,442.31l0-.07,4.84,3.52,0,.07"/><path class="cls-1" d="M505.89,445.75l-4.84-3.52,0-.07,4.84,3.52,0,.07"/><path class="cls-1" d="M505.94,445.68l-4.84-3.52,0-.07,4.84,3.52,0,.07"/><path class="cls-1" d="M506,445.61l-4.84-3.52,0-.08,4.84,3.52,0,.08"/><path class="cls-1" d="M506,445.53,501.18,442l0-.08,4.84,3.52,0,.08"/><path class="cls-1" d="M506.06,445.45l-4.84-3.52,0-.08,4.84,3.52,0,.08"/><path class="cls-1" d="M506.09,445.37l-4.84-3.52,0-.09,4.84,3.52,0,.09"/><path class="cls-1" d="M506.13,445.29l-4.84-3.52,0-.1,4.84,3.52,0,.1"/><path class="cls-1" d="M506.16,445.19l-4.84-3.52,0-.12,4.84,3.52,0,.12"/><path class="cls-1" d="M506.19,445.08l-4.84-3.52a1.19,1.19,0,0,0,0-.21l4.84,3.52a1.19,1.19,0,0,1,0,.21"/></g></g></g><polygon class="cls-1" points="506.22 444.87 501.38 441.35 503.53 387.27 508.37 390.78 506.22 444.87"/><g class="cls-16"><path class="cls-2" d="M503.33,386.77l4.84,3.52a.56.56,0,0,1,.2.5l-4.84-3.52A.56.56,0,0,0,503.33,386.77Z"/><g class="cls-25"><g class="cls-16"><path class="cls-2" d="M508.37,390.78l-4.84-3.52a.56.56,0,0,0-.2-.5l4.84,3.52a.56.56,0,0,1,.2.5"/></g></g></g><polygon class="cls-4" points="421.43 494.81 416.6 491.3 500.36 442.94 505.19 446.45 421.43 494.81"/><g class="cls-16"><path class="cls-2" d="M420.69,494.86l-4.84-3.52a.68.68,0,0,0,.74,0l4.84,3.52A.68.68,0,0,1,420.69,494.86Z"/><g class="cls-26"><g class="cls-16"><path class="cls-2" d="M420.69,494.86l-4.84-3.52,0,0,4.84,3.52,0,0"/><path class="cls-2" d="M420.72,494.88l-4.84-3.52,0,0,4.84,3.52,0,0"/><path class="cls-2" d="M420.76,494.9l-4.84-3.52,0,0,4.84,3.52,0,0"/><path class="cls-2" d="M420.81,494.92,416,491.4h0l4.84,3.52h0"/><path class="cls-2" d="M420.85,494.93,416,491.42h0l4.84,3.52h0"/><path class="cls-2" d="M420.9,494.94l-4.84-3.52h.05l4.84,3.52h-.05"/><path class="cls-2" d="M421,494.95l-4.84-3.52h.06l4.84,3.52H421"/><path class="cls-2" d="M421,494.95l-4.84-3.52h.07l4.84,3.52H421"/><path class="cls-2" d="M421.08,494.94l-4.84-3.52.08,0,4.84,3.52-.08,0"/><path class="cls-2" d="M421.16,494.93l-4.84-3.52.1,0,4.84,3.52-.1,0"/><path class="cls-2" d="M421.26,494.9l-4.84-3.52.18-.08,4.84,3.52-.18.08"/></g></g></g><path class="cls-27" d="M509.75,373.69c.46-.22.91-.41,1.36-.58l.36-.13.43-.15.44-.14.42-.12.33-.08c.37-.09.74-.17,1.1-.22h0c.33,0,.64-.08,1-.1h1.18l.51,0,.29,0,.49.09.25.05.55.16.14,0a7,7,0,0,1,.65.26l.16.09.45.24c.17.1.34.21.5.33L515.53,370l-.45-.3,0,0-.46-.24-.14-.08h0q-.32-.15-.65-.26h0l-.13,0-.55-.16h0l-.2,0-.49-.09-.09,0-.2,0-.51,0h-1.18c-.31,0-.63,0-1,.1h0c-.36.05-.73.13-1.1.22l-.14,0-.19.05-.42.12-.44.14-.43.15-.24.08-.12.05c-.45.17-.9.36-1.36.58l-.23.11c-.48.24-1,.49-1.47.78l4.84,3.52c.5-.29,1-.54,1.47-.78Z"/><g class="cls-16"><path class="cls-1" d="M408.49,511.63l-4.84-3.52c-2.16-1.57-3.38-4.47-3.22-8.48l4.84,3.52C405.1,507.16,406.32,510.06,408.49,511.63Z"/><g class="cls-28"><g class="cls-16"><path class="cls-1" d="M408.49,511.63l-4.84-3.52c-2.16-1.57-3.38-4.47-3.22-8.48l4.84,3.52c-.16,4,1.06,6.9,3.22,8.48"/></g></g></g><polygon class="cls-1" points="405.26 503.15 400.43 499.64 402.57 445.56 407.41 449.07 405.26 503.15"/><polygon class="cls-4" points="424.28 422.94 419.45 419.43 503.21 371.06 508.05 374.58 424.28 422.94"/><path class="cls-2" d="M508,374.58c8.94-5.16,15.91-1.83,15.54,7.41l-2.15,54.08c-.37,9.25-7.94,21-16.87,26.12l-83.76,48.36c-8.94,5.16-15.91,1.84-15.54-7.41l2.15-54.08c.37-9.25,7.94-21,16.88-26.13Zm-1.83,70.29,2.15-54.08c0-.54-.43-.75-.94-.45L423.66,438.7a2.25,2.25,0,0,0-1,1.58l-2.15,54.08c0,.54.42.75.94.45l83.76-48.36a2.26,2.26,0,0,0,1-1.59"/><g class="cls-16"><path class="cls-3" d="M407.41,449.07l-4.84-3.52c.37-9.25,7.94-21,16.88-26.13l4.84,3.52C415.35,428.1,407.78,439.83,407.41,449.07Z"/><g class="cls-29"><g class="cls-16"><path class="cls-30" d="M407.41,449.07l-4.84-3.52a21.31,21.31,0,0,1,.51-3.77l4.84,3.52a21.31,21.31,0,0,0-.51,3.77"/><path class="cls-31" d="M407.92,445.3l-4.84-3.52q.22-1,.53-2l4.84,3.52q-.31,1-.53,2"/><path class="cls-32" d="M408.45,443.3l-4.84-3.52q.24-.79.53-1.58l4.84,3.52q-.29.79-.53,1.58"/><path class="cls-33" d="M409,441.72l-4.84-3.52q.26-.7.55-1.4l4.84,3.52q-.29.7-.55,1.4"/><path class="cls-34" d="M409.53,440.32l-4.84-3.52q.27-.64.57-1.28L410.1,439q-.3.64-.57,1.28"/><path class="cls-35" d="M410.1,439l-4.84-3.52q.29-.61.6-1.22l4.84,3.52q-.31.61-.6,1.22"/><path class="cls-36" d="M410.69,437.82l-4.84-3.52q.3-.59.63-1.17l4.84,3.52q-.32.58-.63,1.17"/><path class="cls-37" d="M411.32,436.65l-4.84-3.52q.32-.57.66-1.14l4.84,3.52q-.34.56-.66,1.14"/><path class="cls-38" d="M412,435.52,407.15,432q.34-.56.7-1.11l4.84,3.52q-.36.55-.7,1.11"/><path class="cls-39" d="M412.68,434.41l-4.84-3.52q.36-.55.74-1.1l4.84,3.52q-.38.54-.74,1.1"/><path class="cls-40" d="M413.41,433.31l-4.84-3.52q.39-.55.79-1.1l4.84,3.52q-.4.54-.79,1.1"/><path class="cls-41" d="M414.21,432.21l-4.84-3.52q.42-.56.85-1.1l4.84,3.52q-.44.54-.85,1.1"/><path class="cls-42" d="M415.06,431.11l-4.84-3.52q.46-.57.93-1.12L416,430q-.48.55-.93,1.12"/><path class="cls-43" d="M416,430l-4.84-3.52q.52-.6,1.05-1.17l4.84,3.52q-.54.57-1.05,1.17"/><path class="cls-44" d="M417,428.81l-4.84-3.52q.61-.66,1.25-1.28l4.84,3.52q-.64.62-1.25,1.28"/><path class="cls-45" d="M418.3,427.53,413.47,424q.82-.79,1.67-1.52L420,426q-.85.73-1.67,1.52"/><path class="cls-46" d="M420,426l-4.84-3.52a29.23,29.23,0,0,1,4.31-3.07l4.84,3.52A29.23,29.23,0,0,0,420,426"/></g></g></g><polygon class="cls-1" points="593.02 422.37 588.18 418.85 589.93 374.81 594.77 378.32 593.02 422.37"/><path class="cls-1" d="M586.31,365.29l4.84,3.52c2.43,1.77,3.8,5,3.62,9.51l-4.84-3.52C590.11,370.31,588.74,367.06,586.31,365.29Z"/><g class="cls-47"><g class="cls-16"><path class="cls-1" d="M594.77,378.33l-4.84-3.52c.18-4.5-1.19-7.75-3.62-9.51l4.84,3.52c2.43,1.77,3.8,5,3.62,9.51"/></g></g><path class="cls-4" d="M598.51,348.53l4.84,3.52c-5.83-4.24-15-3.82-25.4,2.21l-4.84-3.52C583.55,344.71,592.69,344.3,598.51,348.53Z"/><g class="cls-48"><g class="cls-16"><path class="cls-4" d="M577.95,354.26l-4.84-3.52a43.74,43.74,0,0,1,6.57-3.13l4.84,3.52a43.74,43.74,0,0,0-6.57,3.13"/><path class="cls-4" d="M584.51,351.13l-4.84-3.52a33.07,33.07,0,0,1,3.55-1.11l4.84,3.52a33.07,33.07,0,0,0-3.55,1.11"/><path class="cls-4" d="M588.06,350l-4.84-3.52q1.35-.34,2.64-.53l4.84,3.52q-1.29.19-2.64.53"/><path class="cls-4" d="M590.7,349.49,585.86,346q1.12-.16,2.19-.22l4.84,3.52q-1.07.06-2.19.22"/><path class="cls-4" d="M592.89,349.27l-4.84-3.52q1-.05,1.93,0l4.84,3.52q-.94,0-1.93,0"/><path class="cls-4" d="M594.82,349.26,590,345.74q.9,0,1.75.15l4.84,3.52q-.85-.12-1.75-.15"/><path class="cls-4" d="M596.57,349.41l-4.84-3.52q.83.11,1.61.3l4.84,3.52q-.79-.19-1.61-.3"/><path class="cls-4" d="M598.19,349.71l-4.84-3.52a15.47,15.47,0,0,1,1.5.44l4.84,3.52a15.47,15.47,0,0,0-1.5-.44"/><path class="cls-4" d="M599.69,350.15l-4.84-3.52a14.53,14.53,0,0,1,1.4.57l4.84,3.52a14.53,14.53,0,0,0-1.4-.57"/><path class="cls-4" d="M601.09,350.72l-4.84-3.52a13.92,13.92,0,0,1,1.33.71l4.84,3.52a13.92,13.92,0,0,0-1.33-.71"/><path class="cls-4" d="M602.42,351.43l-4.84-3.52q.48.29.93.62l4.84,3.52q-.45-.33-.93-.62"/></g></g><polygon class="cls-1" points="542 390.4 537.16 386.89 537.79 371.13 542.62 374.65 542 390.4"/><polygon class="cls-4" points="542.62 374.65 537.79 371.13 573.11 350.74 577.95 354.26 542.62 374.65"/><path class="cls-2" d="M577.95,354.26c18.43-10.64,32.81-3.79,32.05,15.27l-1.75,44L593,422.37l1.75-44c.41-10.38-7.42-14.1-17.45-8.31L542,390.4l.63-15.75Z"/></svg>