<?xml version="1.0" standalone="no"?><!DOCTYPE svg PUBLIC "-//W3C//DTD SVG 1.1//EN" "http://www.w3.org/Graphics/SVG/1.1/DTD/svg11.dtd"><svg t="1658938098187" class="icon" viewBox="0 0 1024 1024" version="1.1" xmlns="http://www.w3.org/2000/svg" p-id="4327" xmlns:xlink="http://www.w3.org/1999/xlink" width="200" height="200"><defs><style type="text/css"></style></defs><path d="M900.408 899.088c0 48.744-39.536 88.224-88.248 88.224H239.656c-48.712 0-88.192-39.488-88.192-88.224V108.48c0-48.744 39.48-88.256 88.192-88.256h572.504c48.712 0 88.248 39.512 88.248 88.256v790.608z" fill="#F6B246" p-id="4328"></path><path d="M239.712 20.224c-48.712 0-88.256 39.512-88.256 88.256v790.608c0 48.744 39.536 88.224 88.256 88.224h572.504" fill="#F5A517" p-id="4329"></path><path d="M525.728 343.256c179.504 0 330.52-85.608 374.68-201.824V108.48c0-48.744-39.536-88.256-88.248-88.256H239.656c-48.712 0-88.192 39.512-88.192 88.256v34.368c44.832 115.48 195.376 200.408 374.264 200.408zM618.272 598.376H433.592a30.104 30.104 0 1 1 0-60.216h184.68c16.64 0 30.104 13.464 30.104 30.104s-13.464 30.112-30.104 30.112zM618.272 698.208H433.592a30.104 30.104 0 1 1 0-60.216h184.68a30.088 30.088 0 0 1 30.104 30.104 30.088 30.088 0 0 1-30.104 30.112z" fill="#E6246B" p-id="4330"></path><path d="M525.936 862.08a30.096 30.096 0 0 1-30.104-30.112V569.68a30.096 30.096 0 0 1 30.104-30.104 30.08 30.08 0 0 1 30.104 30.104v262.288a30.096 30.096 0 0 1-30.104 30.112z" fill="#E6246B" p-id="4331"></path><path d="M503.152 592.792a30.08 30.08 0 0 1-25.872-14.672l-46.48-77.792a30.104 30.104 0 0 1 10.408-41.272 30.064 30.064 0 0 1 41.272 10.408l46.48 77.792a30.088 30.088 0 0 1-25.808 45.536z" fill="#E6246B" p-id="4332"></path><path d="M548.776 592.792a30.096 30.096 0 0 1-25.808-45.536l46.48-77.792a30.064 30.064 0 0 1 41.272-10.408 30.088 30.088 0 0 1 10.408 41.272l-46.48 77.792a30.088 30.088 0 0 1-25.872 14.672z" fill="#E6246B" p-id="4333"></path></svg>